<svg xmlns="http://www.w3.org/2000/svg" viewBox="0 0 1200 760" role="img" aria-label="Watercolor local China festival and park scene">
  <defs>
    <filter id="paper" x="-10%" y="-10%" width="120%" height="120%">
      <feTurbulence type="fractalNoise" baseFrequency="0.012" numOctaves="4" seed="4" result="noise"/>
      <feColorMatrix type="saturate" values="0.25"/>
      <feBlend in="SourceGraphic" in2="noise" mode="multiply"/>
    </filter>
    <filter id="bleed">
      <feGaussianBlur stdDeviation="24"/>
    </filter>
  </defs>
  <rect width="1200" height="760" fill="#f5f5f5"/>
  <g filter="url(#bleed)" opacity="0.9">
    <ellipse cx="292.78431372549016" cy="172.8235294117647" rx="277.6470588235294" ry="228.11764705882354" fill="#d8cab6"/>
    <ellipse cx="661.0196078431372" cy="268.62745098039215" rx="307.6862745098039" ry="246.4313725490196" fill="#b8d7cc"/>
    <ellipse cx="919.0588235294117" cy="583.5294117647059" rx="394.6666666666667" ry="192.3529411764706" fill="#f0c7a7"/>
  </g>
  <g filter="url(#paper)">
    <path d="M203.9 405.5 C 363.9 315.5, 226.0 477.3, 346.0 357.3" fill="none" stroke="#292524" stroke-opacity="0.1" stroke-width="1"/>
    <path d="M57.3 82.0 C 217.3 -8.0, 463.0 434.0, 583.0 314.0" fill="none" stroke="#292524" stroke-opacity="0.125" stroke-width="2"/>
    <path d="M298.8 99.6 C 458.8 9.6, 533.6 379.4, 653.6 259.4" fill="none" stroke="#292524" stroke-opacity="0.15000000000000002" stroke-width="3"/>
    <path d="M756.1 205.5 C 916.1 115.5, 550.3 281.5, 670.3 161.5" fill="none" stroke="#292524" stroke-opacity="0.17500000000000002" stroke-width="1"/>
    <path d="M44.3 317.3 C 204.3 227.3, 454.7 217.5, 574.7 97.5" fill="none" stroke="#292524" stroke-opacity="0.2" stroke-width="2"/>
    <path d="M83.1 350.6 C 243.1 260.6, 334.1 322.9, 454.1 202.9" fill="none" stroke="#292524" stroke-opacity="0.1" stroke-width="3"/>
    <path d="M316.1 358.4 C 476.1 268.4, 118.0 522.5, 238.0 402.5" fill="none" stroke="#292524" stroke-opacity="0.125" stroke-width="1"/>
    <path d="M562.0 313.3 C 722.0 223.3, -23.4 211.9, 96.6 91.9" fill="none" stroke="#292524" stroke-opacity="0.15000000000000002" stroke-width="2"/>
    <path d="M635.3 256.5 C 795.3 166.5, 209.4 228.8, 329.4 108.8" fill="none" stroke="#292524" stroke-opacity="0.17500000000000002" stroke-width="3"/>
    <path d="M652.5 154.5 C 812.5 64.5, 650.0 330.5, 770.0 210.5" fill="none" stroke="#292524" stroke-opacity="0.2" stroke-width="1"/>
    <path d="M553.3 87.8 C 713.3 -2.2, -35.8 437.8, 84.2 317.8" fill="none" stroke="#292524" stroke-opacity="0.1" stroke-width="2"/>
    <path d="M428.2 197.6 C 588.2 107.6, 1.6 469.8, 121.6 349.8" fill="none" stroke="#292524" stroke-opacity="0.125" stroke-width="3"/>
    <path d="M203.9 405.5 C 363.9 315.5, 226.0 477.3, 346.0 357.3" fill="none" stroke="#292524" stroke-opacity="0.15000000000000002" stroke-width="1"/>
    <path d="M57.3 82.0 C 217.3 -8.0, 463.0 434.0, 583.0 314.0" fill="none" stroke="#292524" stroke-opacity="0.17500000000000002" stroke-width="2"/>
    <path d="M120 610 C260 500 360 560 480 450 C610 330 760 430 900 300 C1000 210 1090 240 1140 200" fill="none" stroke="#292524" stroke-opacity="0.28" stroke-width="4"/>
    <circle cx="210" cy="590" r="9" fill="#292524" fill-opacity="0.25"/>
    <circle cx="515" cy="430" r="9" fill="#292524" fill-opacity="0.22"/>
    <circle cx="890" cy="315" r="9" fill="#292524" fill-opacity="0.2"/>
  </g>
</svg>