<svg xmlns="http://www.w3.org/2000/svg" viewBox="0 0 1200 760" role="img" aria-label="Watercolor food ordering and dietary card scene">
  <defs>
    <filter id="paper" x="-10%" y="-10%" width="120%" height="120%">
      <feTurbulence type="fractalNoise" baseFrequency="0.012" numOctaves="4" seed="71" result="noise"/>
      <feColorMatrix type="saturate" values="0.25"/>
      <feBlend in="SourceGraphic" in2="noise" mode="multiply"/>
    </filter>
    <filter id="bleed">
      <feGaussianBlur stdDeviation="24"/>
    </filter>
  </defs>
  <rect width="1200" height="760" fill="#f5f5f5"/>
  <g filter="url(#bleed)" opacity="0.9">
    <ellipse cx="475.6862745098039" cy="220.11764705882354" rx="320.3137254901961" ry="191.41176470588235" fill="#d8cab6"/>
    <ellipse cx="812.9411764705883" cy="296.2352941176471" rx="388.156862745098" ry="221.1764705882353" fill="#b8d7cc"/>
    <ellipse cx="963.921568627451" cy="551.1764705882352" rx="336.3137254901961" ry="153.76470588235293" fill="#f0c7a7"/>
  </g>
  <g filter="url(#paper)">
    <path d="M1118.4 252.5 C 1278.4 162.5, 675.0 373.8, 795.0 253.8" fill="none" stroke="#292524" stroke-opacity="0.1" stroke-width="1"/>
    <path d="M346.3 374.1 C 506.3 284.1, 271.8 258.9, 391.8 138.9" fill="none" stroke="#292524" stroke-opacity="0.125" stroke-width="2"/>
    <path d="M592.2 162.4 C 752.2 72.4, 749.8 225.1, 869.8 105.1" fill="none" stroke="#292524" stroke-opacity="0.15000000000000002" stroke-width="3"/>
    <path d="M419.6 417.3 C 579.6 327.3, 321.6 680.6, 441.6 560.6" fill="none" stroke="#292524" stroke-opacity="0.17500000000000002" stroke-width="1"/>
    <path d="M687.1 227.1 C 847.1 137.1, 68.1 343.6, 188.1 223.6" fill="none" stroke="#292524" stroke-opacity="0.2" stroke-width="2"/>
    <path d="M221.2 452.5 C 381.2 362.5, -6.7 450.9, 113.3 330.9" fill="none" stroke="#292524" stroke-opacity="0.1" stroke-width="3"/>
    <path d="M782.0 250.6 C 942.0 160.6, 999.2 375.6, 1119.2 255.6" fill="none" stroke="#292524" stroke-opacity="0.125" stroke-width="1"/>
    <path d="M363.5 131.0 C 523.5 41.0, 255.1 492.4, 375.1 372.4" fill="none" stroke="#292524" stroke-opacity="0.15000000000000002" stroke-width="2"/>
    <path d="M859.6 95.7 C 1019.6 5.7, 492.1 289.1, 612.1 169.1" fill="none" stroke="#292524" stroke-opacity="0.17500000000000002" stroke-width="3"/>
    <path d="M415.3 570.2 C 575.3 480.2, 325.8 533.8, 445.8 413.8" fill="none" stroke="#292524" stroke-opacity="0.2" stroke-width="1"/>
    <path d="M152.2 219.2 C 312.2 129.2, 583.5 351.2, 703.5 231.2" fill="none" stroke="#292524" stroke-opacity="0.1" stroke-width="2"/>
    <path d="M74.5 331.0 C 234.5 241.0, 134.6 567.6, 254.6 447.6" fill="none" stroke="#292524" stroke-opacity="0.125" stroke-width="3"/>
    <path d="M1118.4 252.5 C 1278.4 162.5, 675.0 373.8, 795.0 253.8" fill="none" stroke="#292524" stroke-opacity="0.15000000000000002" stroke-width="1"/>
    <path d="M346.3 374.1 C 506.3 284.1, 271.8 258.9, 391.8 138.9" fill="none" stroke="#292524" stroke-opacity="0.17500000000000002" stroke-width="2"/>
    <path d="M120 610 C260 500 360 560 480 450 C610 330 760 430 900 300 C1000 210 1090 240 1140 200" fill="none" stroke="#292524" stroke-opacity="0.28" stroke-width="4"/>
    <circle cx="210" cy="590" r="9" fill="#292524" fill-opacity="0.25"/>
    <circle cx="515" cy="430" r="9" fill="#292524" fill-opacity="0.22"/>
    <circle cx="890" cy="315" r="9" fill="#292524" fill-opacity="0.2"/>
  </g>
</svg>