<svg xmlns="http://www.w3.org/2000/svg" viewBox="0 0 1200 760" role="img" aria-label="Watercolor China first-trip route with Great Wall and city landmarks">
  <defs>
    <filter id="paper" x="-10%" y="-10%" width="120%" height="120%">
      <feTurbulence type="fractalNoise" baseFrequency="0.012" numOctaves="4" seed="8" result="noise"/>
      <feColorMatrix type="saturate" values="0.25"/>
      <feBlend in="SourceGraphic" in2="noise" mode="multiply"/>
    </filter>
    <filter id="bleed">
      <feGaussianBlur stdDeviation="24"/>
    </filter>
  </defs>
  <rect width="1200" height="760" fill="#f5f5f5"/>
  <g filter="url(#bleed)" opacity="0.9">
    <ellipse cx="310.9019607843137" cy="175.64705882352942" rx="301.4901960784314" ry="199.88235294117646" fill="#d6d1e8"/>
    <ellipse cx="843.5294117647059" cy="267.7647058823529" rx="398.5882352941177" ry="304.078431372549" fill="#c5e0d7"/>
    <ellipse cx="978.5882352941177" cy="638.2352941176471" rx="379.6078431372549" ry="200.8235294117647" fill="#efc6b1"/>
  </g>
  <g filter="url(#paper)">
    <path d="M294.5 287.8 C 454.5 197.8, 733.2 652.4, 853.2 532.4" fill="none" stroke="#292524" stroke-opacity="0.1" stroke-width="1"/>
    <path d="M74.5 432.9 C 234.5 342.9, 899.5 388.8, 1019.5 268.8" fill="none" stroke="#292524" stroke-opacity="0.125" stroke-width="2"/>
    <path d="M462.7 97.6 C 622.7 7.6, 820.5 413.3, 940.5 293.3" fill="none" stroke="#292524" stroke-opacity="0.15000000000000002" stroke-width="3"/>
    <path d="M497.3 444.7 C 657.3 354.7, 936.9 321.1, 1056.9 201.1" fill="none" stroke="#292524" stroke-opacity="0.17500000000000002" stroke-width="1"/>
    <path d="M816.5 523.1 C 976.5 433.1, 354.9 225.1, 474.9 105.1" fill="none" stroke="#292524" stroke-opacity="0.2" stroke-width="2"/>
    <path d="M78.8 485.9 C 238.8 395.9, 408.9 394.5, 528.9 274.5" fill="none" stroke="#292524" stroke-opacity="0.1" stroke-width="3"/>
    <path d="M842.4 540.8 C 1002.4 450.8, 205.3 409.5, 325.3 289.5" fill="none" stroke="#292524" stroke-opacity="0.125" stroke-width="1"/>
    <path d="M1014.9 266.3 C 1174.9 176.3, -6.7 548.8, 113.3 428.8" fill="none" stroke="#292524" stroke-opacity="0.15000000000000002" stroke-width="2"/>
    <path d="M932.9 291.8 C 1092.9 201.8, 367.4 226.9, 487.4 106.9" fill="none" stroke="#292524" stroke-opacity="0.17500000000000002" stroke-width="3"/>
    <path d="M1053.7 195.7 C 1213.7 105.7, 400.6 560.1, 520.6 440.1" fill="none" stroke="#292524" stroke-opacity="0.2" stroke-width="1"/>
    <path d="M449.8 95.7 C 609.8 5.7, 708.2 635.4, 828.2 515.4" fill="none" stroke="#292524" stroke-opacity="0.1" stroke-width="2"/>
    <path d="M505.9 272.2 C 665.9 182.2, -2.6 599.6, 117.4 479.6" fill="none" stroke="#292524" stroke-opacity="0.125" stroke-width="3"/>
    <path d="M294.5 287.8 C 454.5 197.8, 733.2 652.4, 853.2 532.4" fill="none" stroke="#292524" stroke-opacity="0.15000000000000002" stroke-width="1"/>
    <path d="M74.5 432.9 C 234.5 342.9, 899.5 388.8, 1019.5 268.8" fill="none" stroke="#292524" stroke-opacity="0.17500000000000002" stroke-width="2"/>
    <path d="M120 610 C260 500 360 560 480 450 C610 330 760 430 900 300 C1000 210 1090 240 1140 200" fill="none" stroke="#292524" stroke-opacity="0.28" stroke-width="4"/>
    <circle cx="210" cy="590" r="9" fill="#292524" fill-opacity="0.25"/>
    <circle cx="515" cy="430" r="9" fill="#292524" fill-opacity="0.22"/>
    <circle cx="890" cy="315" r="9" fill="#292524" fill-opacity="0.2"/>
  </g>
</svg>