<svg xmlns="http://www.w3.org/2000/svg" viewBox="0 0 1200 760" role="img" aria-label="Watercolor China travel guide hero scene">
  <defs>
    <filter id="paper" x="-10%" y="-10%" width="120%" height="120%">
      <feTurbulence type="fractalNoise" baseFrequency="0.012" numOctaves="4" seed="220" result="noise"/>
      <feColorMatrix type="saturate" values="0.25"/>
      <feBlend in="SourceGraphic" in2="noise" mode="multiply"/>
    </filter>
    <filter id="bleed">
      <feGaussianBlur stdDeviation="24"/>
    </filter>
  </defs>
  <rect width="1200" height="760" fill="#f5f5f5"/>
  <g filter="url(#bleed)" opacity="0.9">
    <ellipse cx="463.6078431372549" cy="325.29411764705884" rx="255.05882352941177" ry="241.2941176470588" fill="#c7dfd4"/>
    <ellipse cx="886.3529411764706" cy="353.1764705882353" rx="440.3137254901961" ry="189.88235294117646" fill="#efc3a7"/>
    <ellipse cx="803.4509803921569" cy="598.2352941176471" rx="340.078431372549" ry="248.8235294117647" fill="#c9bddf"/>
  </g>
  <g filter="url(#paper)">
    <path d="M1058.0 460.4 C 1218.0 370.4, 966.0 524.4, 1086.0 404.4" fill="none" stroke="#292524" stroke-opacity="0.1" stroke-width="1"/>
    <path d="M989.0 515.3 C 1149.0 425.3, 34.8 270.2, 154.8 150.2" fill="none" stroke="#292524" stroke-opacity="0.125" stroke-width="2"/>
    <path d="M143.5 291.8 C 303.5 201.8, -23.4 605.3, 96.6 485.3" fill="none" stroke="#292524" stroke-opacity="0.15000000000000002" stroke-width="3"/>
    <path d="M876.9 554.5 C 1036.9 464.5, 654.2 654.2, 774.2 534.2" fill="none" stroke="#292524" stroke-opacity="0.17500000000000002" stroke-width="1"/>
    <path d="M997.6 115.3 C 1157.6 25.3, 93.0 624.1, 213.0 504.1" fill="none" stroke="#292524" stroke-opacity="0.2" stroke-width="2"/>
    <path d="M505.9 87.8 C 665.9 -2.2, 832.9 255.2, 952.9 135.2" fill="none" stroke="#292524" stroke-opacity="0.1" stroke-width="3"/>
    <path d="M1083.9 407.5 C 1243.9 317.5, 941.0 575.2, 1061.0 455.2" fill="none" stroke="#292524" stroke-opacity="0.125" stroke-width="1"/>
    <path d="M117.6 142.7 C 277.6 52.7, 874.5 627.9, 994.5 507.9" fill="none" stroke="#292524" stroke-opacity="0.15000000000000002" stroke-width="2"/>
    <path d="M57.3 491.8 C 217.3 401.8, 59.8 413.3, 179.8 293.3" fill="none" stroke="#292524" stroke-opacity="0.17500000000000002" stroke-width="3"/>
    <path d="M760.4 542.7 C 920.4 452.7, 766.4 665.5, 886.4 545.5" fill="none" stroke="#292524" stroke-opacity="0.2" stroke-width="1"/>
    <path d="M178.0 511.4 C 338.0 421.4, 882.8 243.9, 1002.8 123.9" fill="none" stroke="#292524" stroke-opacity="0.1" stroke-width="2"/>
    <path d="M945.9 127.1 C 1105.9 37.1, 408.9 217.5, 528.9 97.5" fill="none" stroke="#292524" stroke-opacity="0.125" stroke-width="3"/>
    <path d="M1058.0 460.4 C 1218.0 370.4, 966.0 524.4, 1086.0 404.4" fill="none" stroke="#292524" stroke-opacity="0.15000000000000002" stroke-width="1"/>
    <path d="M989.0 515.3 C 1149.0 425.3, 34.8 270.2, 154.8 150.2" fill="none" stroke="#292524" stroke-opacity="0.17500000000000002" stroke-width="2"/>
    <path d="M120 610 C260 500 360 560 480 450 C610 330 760 430 900 300 C1000 210 1090 240 1140 200" fill="none" stroke="#292524" stroke-opacity="0.28" stroke-width="4"/>
    <circle cx="210" cy="590" r="9" fill="#292524" fill-opacity="0.25"/>
    <circle cx="515" cy="430" r="9" fill="#292524" fill-opacity="0.22"/>
    <circle cx="890" cy="315" r="9" fill="#292524" fill-opacity="0.2"/>
  </g>
</svg>