<svg xmlns="http://www.w3.org/2000/svg" viewBox="0 0 1200 760" role="img" aria-label="Watercolor China destination planning scene">
  <defs>
    <filter id="paper" x="-10%" y="-10%" width="120%" height="120%">
      <feTurbulence type="fractalNoise" baseFrequency="0.012" numOctaves="4" seed="56" result="noise"/>
      <feColorMatrix type="saturate" values="0.25"/>
      <feBlend in="SourceGraphic" in2="noise" mode="multiply"/>
    </filter>
    <filter id="bleed">
      <feGaussianBlur stdDeviation="24"/>
    </filter>
  </defs>
  <rect width="1200" height="760" fill="#f5f5f5"/>
  <g filter="url(#bleed)" opacity="0.9">
    <ellipse cx="448.078431372549" cy="209.52941176470588" rx="392.47058823529414" ry="214.94117647058823" fill="#d8cab6"/>
    <ellipse cx="702.8235294117648" cy="315.21568627450984" rx="388.9019607843137" ry="228.31372549019608" fill="#b8d7cc"/>
    <ellipse cx="994.9803921568628" cy="573.5294117647059" rx="371.45098039215685" ry="262.94117647058823" fill="#f0c7a7"/>
  </g>
  <g filter="url(#paper)">
    <path d="M980.4 350.6 C 1140.4 260.6, 679.1 445.3, 799.1 325.3" fill="none" stroke="#292524" stroke-opacity="0.1" stroke-width="1"/>
    <path d="M281.6 162.4 C 441.6 72.4, 325.8 364.4, 445.8 244.4" fill="none" stroke="#292524" stroke-opacity="0.125" stroke-width="2"/>
    <path d="M1088.2 205.5 C 1248.2 115.5, 899.5 661.8, 1019.5 541.8" fill="none" stroke="#292524" stroke-opacity="0.15000000000000002" stroke-width="3"/>
    <path d="M635.3 419.2 C 795.3 329.2, 479.6 620.4, 599.6 500.4" fill="none" stroke="#292524" stroke-opacity="0.17500000000000002" stroke-width="1"/>
    <path d="M221.2 252.5 C 381.2 162.5, 300.9 315.4, 420.9 195.4" fill="none" stroke="#292524" stroke-opacity="0.2" stroke-width="2"/>
    <path d="M316.1 523.1 C 476.1 433.1, 957.6 667.4, 1077.6 547.4" fill="none" stroke="#292524" stroke-opacity="0.1" stroke-width="3"/>
    <path d="M786.3 325.1 C 946.3 235.1, 866.2 469.8, 986.2 349.8" fill="none" stroke="#292524" stroke-opacity="0.125" stroke-width="1"/>
    <path d="M419.6 240.8 C 579.6 150.8, 192.8 289.1, 312.8 169.1" fill="none" stroke="#292524" stroke-opacity="0.15000000000000002" stroke-width="2"/>
    <path d="M1014.9 550.6 C 1174.9 460.6, 970.1 330.5, 1090.1 210.5" fill="none" stroke="#292524" stroke-opacity="0.17500000000000002" stroke-width="3"/>
    <path d="M579.2 507.5 C 739.2 417.5, 533.6 535.6, 653.6 415.6" fill="none" stroke="#292524" stroke-opacity="0.2" stroke-width="1"/>
    <path d="M393.7 189.8 C 553.7 99.8, 134.6 375.6, 254.6 255.6" fill="none" stroke="#292524" stroke-opacity="0.1" stroke-width="2"/>
    <path d="M1075.3 556.5 C 1235.3 466.5, 226.0 635.4, 346.0 515.4" fill="none" stroke="#292524" stroke-opacity="0.125" stroke-width="3"/>
    <path d="M980.4 350.6 C 1140.4 260.6, 679.1 445.3, 799.1 325.3" fill="none" stroke="#292524" stroke-opacity="0.15000000000000002" stroke-width="1"/>
    <path d="M281.6 162.4 C 441.6 72.4, 325.8 364.4, 445.8 244.4" fill="none" stroke="#292524" stroke-opacity="0.17500000000000002" stroke-width="2"/>
    <path d="M120 610 C260 500 360 560 480 450 C610 330 760 430 900 300 C1000 210 1090 240 1140 200" fill="none" stroke="#292524" stroke-opacity="0.28" stroke-width="4"/>
    <circle cx="210" cy="590" r="9" fill="#292524" fill-opacity="0.25"/>
    <circle cx="515" cy="430" r="9" fill="#292524" fill-opacity="0.22"/>
    <circle cx="890" cy="315" r="9" fill="#292524" fill-opacity="0.2"/>
  </g>
</svg>