<svg xmlns="http://www.w3.org/2000/svg" viewBox="0 0 1200 760" role="img" aria-label="Watercolor hotel check-in with foreign passport">
  <defs>
    <filter id="paper" x="-10%" y="-10%" width="120%" height="120%">
      <feTurbulence type="fractalNoise" baseFrequency="0.012" numOctaves="4" seed="160" result="noise"/>
      <feColorMatrix type="saturate" values="0.25"/>
      <feBlend in="SourceGraphic" in2="noise" mode="multiply"/>
    </filter>
    <filter id="bleed">
      <feGaussianBlur stdDeviation="24"/>
    </filter>
  </defs>
  <rect width="1200" height="760" fill="#f5f5f5"/>
  <g filter="url(#bleed)" opacity="0.9">
    <ellipse cx="461.01960784313724" cy="282.94117647058823" rx="258.8235294117647" ry="224.8235294117647" fill="#bed8eb"/>
    <ellipse cx="915.9215686274509" cy="415.29411764705884" rx="429.88235294117646" ry="292.54901960784315" fill="#e6b8c2"/>
    <ellipse cx="936.313725490196" cy="520.5882352941177" rx="330.03921568627453" ry="198" fill="#e9dcc5"/>
  </g>
  <g filter="url(#paper)">
    <path d="M1045.1 391.8 C 1205.1 301.8, 907.8 275.9, 1027.8 155.9" fill="none" stroke="#292524" stroke-opacity="0.1" stroke-width="1"/>
    <path d="M730.2 572.2 C 890.2 482.2, 812.2 240.1, 932.2 120.1" fill="none" stroke="#292524" stroke-opacity="0.125" stroke-width="2"/>
    <path d="M169.4 432.9 C 329.4 342.9, 616.8 402.0, 736.8 282.0" fill="none" stroke="#292524" stroke-opacity="0.15000000000000002" stroke-width="3"/>
    <path d="M725.9 527.1 C 885.9 437.1, 105.5 648.6, 225.5 528.6" fill="none" stroke="#292524" stroke-opacity="0.17500000000000002" stroke-width="1"/>
    <path d="M1122.7 482.0 C 1282.7 392.0, 26.5 511.2, 146.5 391.2" fill="none" stroke="#292524" stroke-opacity="0.2" stroke-width="2"/>
    <path d="M816.5 389.8 C 976.5 299.8, 384.0 266.5, 504.0 146.5" fill="none" stroke="#292524" stroke-opacity="0.1" stroke-width="3"/>
    <path d="M1023.5 148.6 C 1183.5 58.6, 928.5 509.3, 1048.5 389.3" fill="none" stroke="#292524" stroke-opacity="0.125" stroke-width="1"/>
    <path d="M924.3 111.4 C 1084.3 21.4, 625.1 682.5, 745.1 562.5" fill="none" stroke="#292524" stroke-opacity="0.15000000000000002" stroke-width="2"/>
    <path d="M721.6 280.0 C 881.6 190.0, 84.7 548.8, 204.7 428.8" fill="none" stroke="#292524" stroke-opacity="0.17500000000000002" stroke-width="3"/>
    <path d="M191.0 536.9 C 351.0 446.9, 620.9 639.2, 740.9 519.2" fill="none" stroke="#292524" stroke-opacity="0.2" stroke-width="1"/>
    <path d="M109.0 393.7 C 269.0 303.7, 1003.4 595.9, 1123.4 475.9" fill="none" stroke="#292524" stroke-opacity="0.1" stroke-width="2"/>
    <path d="M480.0 138.8 C 640.0 48.8, 708.2 507.4, 828.2 387.4" fill="none" stroke="#292524" stroke-opacity="0.125" stroke-width="3"/>
    <path d="M1045.1 391.8 C 1205.1 301.8, 907.8 275.9, 1027.8 155.9" fill="none" stroke="#292524" stroke-opacity="0.15000000000000002" stroke-width="1"/>
    <path d="M730.2 572.2 C 890.2 482.2, 812.2 240.1, 932.2 120.1" fill="none" stroke="#292524" stroke-opacity="0.17500000000000002" stroke-width="2"/>
    <path d="M120 610 C260 500 360 560 480 450 C610 330 760 430 900 300 C1000 210 1090 240 1140 200" fill="none" stroke="#292524" stroke-opacity="0.28" stroke-width="4"/>
    <circle cx="210" cy="590" r="9" fill="#292524" fill-opacity="0.25"/>
    <circle cx="515" cy="430" r="9" fill="#292524" fill-opacity="0.22"/>
    <circle cx="890" cy="315" r="9" fill="#292524" fill-opacity="0.2"/>
  </g>
</svg>