<svg xmlns="http://www.w3.org/2000/svg" viewBox="0 0 1200 760" role="img" aria-label="Watercolor eSIM and internet setup scene">
  <defs>
    <filter id="paper" x="-10%" y="-10%" width="120%" height="120%">
      <feTurbulence type="fractalNoise" baseFrequency="0.012" numOctaves="4" seed="203" result="noise"/>
      <feColorMatrix type="saturate" values="0.25"/>
      <feBlend in="SourceGraphic" in2="noise" mode="multiply"/>
    </filter>
    <filter id="bleed">
      <feGaussianBlur stdDeviation="24"/>
    </filter>
  </defs>
  <rect width="1200" height="760" fill="#f5f5f5"/>
  <g filter="url(#bleed)" opacity="0.9">
    <ellipse cx="299.6862745098039" cy="313.2941176470588" rx="282.6666666666667" ry="166.47058823529412" fill="#d8cab6"/>
    <ellipse cx="669.1764705882352" cy="467.92156862745094" rx="318.11764705882354" ry="318.9019607843137" fill="#b8d7cc"/>
    <ellipse cx="971.686274509804" cy="647.6470588235294" rx="431.6862745098039" ry="233.76470588235293" fill="#f0c7a7"/>
  </g>
  <g filter="url(#paper)">
    <path d="M238.4 148.6 C 398.4 58.6, 284.2 682.5, 404.2 562.5" fill="none" stroke="#292524" stroke-opacity="0.1" stroke-width="1"/>
    <path d="M915.7 97.6 C 1075.7 7.6, 1011.7 545.1, 1131.7 425.1" fill="none" stroke="#292524" stroke-opacity="0.125" stroke-width="2"/>
    <path d="M333.3 552.5 C 493.3 462.5, 787.2 545.1, 907.2 425.1" fill="none" stroke="#292524" stroke-opacity="0.15000000000000002" stroke-width="3"/>
    <path d="M191.0 232.9 C 351.0 142.9, 1003.4 296.6, 1123.4 176.6" fill="none" stroke="#292524" stroke-opacity="0.17500000000000002" stroke-width="1"/>
    <path d="M78.8 576.1 C 238.8 486.1, 699.9 592.1, 819.9 472.1" fill="none" stroke="#292524" stroke-opacity="0.2" stroke-width="2"/>
    <path d="M1079.6 470.2 C 1239.6 380.2, 699.9 338.0, 819.9 218.0" fill="none" stroke="#292524" stroke-opacity="0.1" stroke-width="3"/>
    <path d="M376.5 572.2 C 536.5 482.2, 151.2 275.9, 271.2 155.9" fill="none" stroke="#292524" stroke-opacity="0.125" stroke-width="1"/>
    <path d="M1131.4 429.0 C 1291.4 339.0, 803.8 226.9, 923.8 106.9" fill="none" stroke="#292524" stroke-opacity="0.15000000000000002" stroke-width="2"/>
    <path d="M898.4 429.0 C 1058.4 339.0, 242.7 663.6, 362.7 543.6" fill="none" stroke="#292524" stroke-opacity="0.17500000000000002" stroke-width="3"/>
    <path d="M1122.7 170.2 C 1282.7 80.2, 105.5 356.8, 225.5 236.8" fill="none" stroke="#292524" stroke-opacity="0.2" stroke-width="1"/>
    <path d="M807.8 478.0 C 967.8 388.0, -2.6 686.2, 117.4 566.2" fill="none" stroke="#292524" stroke-opacity="0.1" stroke-width="2"/>
    <path d="M807.8 213.3 C 967.8 123.3, 961.8 584.6, 1081.8 464.6" fill="none" stroke="#292524" stroke-opacity="0.125" stroke-width="3"/>
    <path d="M238.4 148.6 C 398.4 58.6, 284.2 682.5, 404.2 562.5" fill="none" stroke="#292524" stroke-opacity="0.15000000000000002" stroke-width="1"/>
    <path d="M915.7 97.6 C 1075.7 7.6, 1011.7 545.1, 1131.7 425.1" fill="none" stroke="#292524" stroke-opacity="0.17500000000000002" stroke-width="2"/>
    <path d="M120 610 C260 500 360 560 480 450 C610 330 760 430 900 300 C1000 210 1090 240 1140 200" fill="none" stroke="#292524" stroke-opacity="0.28" stroke-width="4"/>
    <circle cx="210" cy="590" r="9" fill="#292524" fill-opacity="0.25"/>
    <circle cx="515" cy="430" r="9" fill="#292524" fill-opacity="0.22"/>
    <circle cx="890" cy="315" r="9" fill="#292524" fill-opacity="0.2"/>
  </g>
</svg>