<svg xmlns="http://www.w3.org/2000/svg" viewBox="0 0 1200 760" role="img" aria-label="Watercolor China pre-departure planning desk">
  <defs>
    <filter id="paper" x="-10%" y="-10%" width="120%" height="120%">
      <feTurbulence type="fractalNoise" baseFrequency="0.012" numOctaves="4" seed="56" result="noise"/>
      <feColorMatrix type="saturate" values="0.25"/>
      <feBlend in="SourceGraphic" in2="noise" mode="multiply"/>
    </filter>
    <filter id="bleed">
      <feGaussianBlur stdDeviation="24"/>
    </filter>
  </defs>
  <rect width="1200" height="760" fill="#f5f5f5"/>
  <g filter="url(#bleed)" opacity="0.9">
    <ellipse cx="381.6470588235294" cy="209.52941176470588" rx="255.05882352941177" ry="254.47058823529412" fill="#bed8eb"/>
    <ellipse cx="912.8627450980392" cy="436.8627450980392" rx="306.94117647058823" ry="304.62745098039215" fill="#e6b8c2"/>
    <ellipse cx="843.1372549019608" cy="582.3529411764706" rx="470.5882352941177" ry="161.76470588235293" fill="#e9dcc5"/>
  </g>
  <g filter="url(#paper)">
    <path d="M648.2 515.3 C 808.2 425.3, 221.9 473.5, 341.9 353.5" fill="none" stroke="#292524" stroke-opacity="0.1" stroke-width="1"/>
    <path d="M281.6 566.3 C 441.6 476.3, 903.6 661.8, 1023.6 541.8" fill="none" stroke="#292524" stroke-opacity="0.125" stroke-width="2"/>
    <path d="M143.5 482.0 C 303.5 392.0, 167.8 257.1, 287.8 137.1" fill="none" stroke="#292524" stroke-opacity="0.15000000000000002" stroke-width="3"/>
    <path d="M997.6 203.5 C 1157.6 113.5, 542.0 475.4, 662.0 355.4" fill="none" stroke="#292524" stroke-opacity="0.17500000000000002" stroke-width="1"/>
    <path d="M1109.8 525.1 C 1269.8 435.1, 957.6 315.4, 1077.6 195.4" fill="none" stroke="#292524" stroke-opacity="0.2" stroke-width="2"/>
    <path d="M924.3 178.0 C 1084.3 88.0, 63.9 255.2, 183.9 135.2" fill="none" stroke="#292524" stroke-opacity="0.1" stroke-width="3"/>
    <path d="M311.8 354.5 C 471.8 264.5, 546.1 627.9, 666.1 507.9" fill="none" stroke="#292524" stroke-opacity="0.125" stroke-width="1"/>
    <path d="M1019.2 550.6 C 1179.2 460.6, 192.8 676.8, 312.8 556.8" fill="none" stroke="#292524" stroke-opacity="0.15000000000000002" stroke-width="2"/>
    <path d="M255.7 129.0 C 415.7 39.0, 59.8 595.9, 179.8 475.9" fill="none" stroke="#292524" stroke-opacity="0.17500000000000002" stroke-width="3"/>
    <path d="M643.9 356.5 C 803.9 266.5, 882.8 328.6, 1002.8 208.6" fill="none" stroke="#292524" stroke-opacity="0.2" stroke-width="1"/>
    <path d="M1075.3 189.8 C 1235.3 99.8, 990.9 637.3, 1110.9 517.3" fill="none" stroke="#292524" stroke-opacity="0.1" stroke-width="2"/>
    <path d="M147.8 127.1 C 307.8 37.1, 812.2 304.1, 932.2 184.1" fill="none" stroke="#292524" stroke-opacity="0.125" stroke-width="3"/>
    <path d="M648.2 515.3 C 808.2 425.3, 221.9 473.5, 341.9 353.5" fill="none" stroke="#292524" stroke-opacity="0.15000000000000002" stroke-width="1"/>
    <path d="M281.6 566.3 C 441.6 476.3, 903.6 661.8, 1023.6 541.8" fill="none" stroke="#292524" stroke-opacity="0.17500000000000002" stroke-width="2"/>
    <path d="M120 610 C260 500 360 560 480 450 C610 330 760 430 900 300 C1000 210 1090 240 1140 200" fill="none" stroke="#292524" stroke-opacity="0.28" stroke-width="4"/>
    <circle cx="210" cy="590" r="9" fill="#292524" fill-opacity="0.25"/>
    <circle cx="515" cy="430" r="9" fill="#292524" fill-opacity="0.22"/>
    <circle cx="890" cy="315" r="9" fill="#292524" fill-opacity="0.2"/>
  </g>
</svg>