<svg xmlns="http://www.w3.org/2000/svg" viewBox="0 0 1200 760" role="img" aria-label="Watercolor destination illustration for Huangguoshu Waterfall">
  <defs>
    <filter id="paper" x="-10%" y="-10%" width="120%" height="120%">
      <feTurbulence type="fractalNoise" baseFrequency="0.012" numOctaves="4" seed="17" result="noise"/>
      <feColorMatrix type="saturate" values="0.25"/>
      <feBlend in="SourceGraphic" in2="noise" mode="multiply"/>
    </filter>
    <filter id="bleed">
      <feGaussianBlur stdDeviation="24"/>
    </filter>
  </defs>
  <rect width="1200" height="760" fill="#f5f5f5"/>
  <g filter="url(#bleed)" opacity="0.9">
    <ellipse cx="260" cy="182" rx="371.7647058823529" ry="250.23529411764707" fill="#c7dfd4"/>
    <ellipse cx="901.6470588235294" cy="386.8235294117647" rx="353.1372549019608" ry="189.88235294117646" fill="#efc3a7"/>
    <ellipse cx="890.5882352941177" cy="518.2352941176471" rx="454.9019607843137" ry="177.76470588235293" fill="#c9bddf"/>
  </g>
  <g filter="url(#paper)">
    <path d="M40.0 497.6 C 200.0 407.6, 479.6 268.4, 599.6 148.4" fill="none" stroke="#292524" stroke-opacity="0.1" stroke-width="1"/>
    <path d="M113.3 544.7 C 273.3 454.7, 34.8 614.7, 154.8 494.7" fill="none" stroke="#292524" stroke-opacity="0.125" stroke-width="2"/>
    <path d="M945.9 368.2 C 1105.9 278.2, 396.5 321.1, 516.5 201.1" fill="none" stroke="#292524" stroke-opacity="0.15000000000000002" stroke-width="3"/>
    <path d="M958.8 325.1 C 1118.8 235.1, 88.9 210.0, 208.9 90.0" fill="none" stroke="#292524" stroke-opacity="0.17500000000000002" stroke-width="1"/>
    <path d="M1062.4 115.3 C 1222.4 25.3, 853.7 242.0, 973.7 122.0" fill="none" stroke="#292524" stroke-opacity="0.2" stroke-width="2"/>
    <path d="M674.1 285.9 C 834.1 195.9, 205.3 605.3, 325.3 485.3" fill="none" stroke="#292524" stroke-opacity="0.1" stroke-width="3"/>
    <path d="M579.2 140.8 C 739.2 50.8, -40.0 610.9, 80.0 490.9" fill="none" stroke="#292524" stroke-opacity="0.125" stroke-width="1"/>
    <path d="M117.6 501.6 C 277.6 411.6, 30.7 656.1, 150.7 536.1" fill="none" stroke="#292524" stroke-opacity="0.15000000000000002" stroke-width="2"/>
    <path d="M492.9 195.7 C 652.9 105.7, 832.9 486.7, 952.9 366.7" fill="none" stroke="#292524" stroke-opacity="0.17500000000000002" stroke-width="3"/>
    <path d="M173.7 80.0 C 333.7 -10.0, 845.4 445.3, 965.4 325.3" fill="none" stroke="#292524" stroke-opacity="0.2" stroke-width="1"/>
    <path d="M967.5 113.3 C 1127.5 23.3, 945.2 243.9, 1065.2 123.9" fill="none" stroke="#292524" stroke-opacity="0.1" stroke-width="2"/>
    <path d="M294.5 491.8 C 454.5 401.8, 571.1 407.6, 691.1 287.6" fill="none" stroke="#292524" stroke-opacity="0.125" stroke-width="3"/>
    <path d="M40.0 497.6 C 200.0 407.6, 479.6 268.4, 599.6 148.4" fill="none" stroke="#292524" stroke-opacity="0.15000000000000002" stroke-width="1"/>
    <path d="M113.3 544.7 C 273.3 454.7, 34.8 614.7, 154.8 494.7" fill="none" stroke="#292524" stroke-opacity="0.17500000000000002" stroke-width="2"/>
    <path d="M120 610 C260 500 360 560 480 450 C610 330 760 430 900 300 C1000 210 1090 240 1140 200" fill="none" stroke="#292524" stroke-opacity="0.28" stroke-width="4"/>
    <circle cx="210" cy="590" r="9" fill="#292524" fill-opacity="0.25"/>
    <circle cx="515" cy="430" r="9" fill="#292524" fill-opacity="0.22"/>
    <circle cx="890" cy="315" r="9" fill="#292524" fill-opacity="0.2"/>
  </g>
</svg>