<svg xmlns="http://www.w3.org/2000/svg" viewBox="0 0 1200 760" role="img" aria-label="Watercolor destination illustration for Huangshan">
  <defs>
    <filter id="paper" x="-10%" y="-10%" width="120%" height="120%">
      <feTurbulence type="fractalNoise" baseFrequency="0.012" numOctaves="4" seed="76" result="noise"/>
      <feColorMatrix type="saturate" values="0.25"/>
      <feBlend in="SourceGraphic" in2="noise" mode="multiply"/>
    </filter>
    <filter id="bleed">
      <feGaussianBlur stdDeviation="24"/>
    </filter>
  </defs>
  <rect width="1200" height="760" fill="#f5f5f5"/>
  <g filter="url(#bleed)" opacity="0.9">
    <ellipse cx="445.4901960784314" cy="223.64705882352942" rx="349.1764705882353" ry="158.94117647058823" fill="#d6d1e8"/>
    <ellipse cx="783.3725490196078" cy="366.98039215686276" rx="268.19607843137254" ry="183.2941176470588" fill="#c5e0d7"/>
    <ellipse cx="918.1960784313726" cy="582.9411764705883" rx="431.05882352941177" ry="211.1764705882353" fill="#efc6b1"/>
  </g>
  <g filter="url(#paper)">
    <path d="M967.5 117.3 C 1127.5 27.3, 5.7 475.4, 125.7 355.4" fill="none" stroke="#292524" stroke-opacity="0.1" stroke-width="1"/>
    <path d="M367.8 317.3 C 527.8 227.3, -15.1 543.2, 104.9 423.2" fill="none" stroke="#292524" stroke-opacity="0.125" stroke-width="2"/>
    <path d="M790.6 323.1 C 950.6 233.1, 529.5 454.7, 649.5 334.7" fill="none" stroke="#292524" stroke-opacity="0.15000000000000002" stroke-width="3"/>
    <path d="M122.0 101.6 C 282.0 11.6, 546.1 614.7, 666.1 494.7" fill="none" stroke="#292524" stroke-opacity="0.17500000000000002" stroke-width="1"/>
    <path d="M562.0 91.8 C 722.0 1.8, 695.8 353.1, 815.8 233.1" fill="none" stroke="#292524" stroke-opacity="0.2" stroke-width="2"/>
    <path d="M574.9 348.6 C 734.9 258.6, 500.4 537.5, 620.4 417.5" fill="none" stroke="#292524" stroke-opacity="0.1" stroke-width="3"/>
    <path d="M87.5 356.5 C 247.5 266.5, 853.7 245.8, 973.7 125.8" fill="none" stroke="#292524" stroke-opacity="0.125" stroke-width="1"/>
    <path d="M65.9 427.1 C 225.9 337.1, 275.9 437.8, 395.9 317.8" fill="none" stroke="#292524" stroke-opacity="0.15000000000000002" stroke-width="2"/>
    <path d="M631.0 334.9 C 791.0 244.9, 683.3 443.4, 803.3 323.4" fill="none" stroke="#292524" stroke-opacity="0.17500000000000002" stroke-width="3"/>
    <path d="M648.2 501.6 C 808.2 411.6, 39.0 230.7, 159.0 110.7" fill="none" stroke="#292524" stroke-opacity="0.2" stroke-width="1"/>
    <path d="M803.5 229.0 C 963.5 139.0, 463.0 221.3, 583.0 101.3" fill="none" stroke="#292524" stroke-opacity="0.1" stroke-width="2"/>
    <path d="M600.8 421.2 C 760.8 331.2, 475.5 467.9, 595.5 347.9" fill="none" stroke="#292524" stroke-opacity="0.125" stroke-width="3"/>
    <path d="M967.5 117.3 C 1127.5 27.3, 5.7 475.4, 125.7 355.4" fill="none" stroke="#292524" stroke-opacity="0.15000000000000002" stroke-width="1"/>
    <path d="M367.8 317.3 C 527.8 227.3, -15.1 543.2, 104.9 423.2" fill="none" stroke="#292524" stroke-opacity="0.17500000000000002" stroke-width="2"/>
    <path d="M120 610 C260 500 360 560 480 450 C610 330 760 430 900 300 C1000 210 1090 240 1140 200" fill="none" stroke="#292524" stroke-opacity="0.28" stroke-width="4"/>
    <circle cx="210" cy="590" r="9" fill="#292524" fill-opacity="0.25"/>
    <circle cx="515" cy="430" r="9" fill="#292524" fill-opacity="0.22"/>
    <circle cx="890" cy="315" r="9" fill="#292524" fill-opacity="0.2"/>
  </g>
</svg>