<svg xmlns="http://www.w3.org/2000/svg" viewBox="0 0 1200 760" role="img" aria-label="Watercolor destination illustration for Ruins of Saint Paul&apos;s">
  <defs>
    <filter id="paper" x="-10%" y="-10%" width="120%" height="120%">
      <feTurbulence type="fractalNoise" baseFrequency="0.012" numOctaves="4" seed="207" result="noise"/>
      <feColorMatrix type="saturate" values="0.25"/>
      <feBlend in="SourceGraphic" in2="noise" mode="multiply"/>
    </filter>
    <filter id="bleed">
      <feGaussianBlur stdDeviation="24"/>
    </filter>
  </defs>
  <rect width="1200" height="760" fill="#f5f5f5"/>
  <g filter="url(#bleed)" opacity="0.9">
    <ellipse cx="394.5882352941177" cy="316.11764705882354" rx="356.078431372549" ry="177.76470588235293" fill="#c7dfd4"/>
    <ellipse cx="903.686274509804" cy="467.05882352941177" rx="376.2352941176471" ry="229.9607843137255" fill="#efc3a7"/>
    <ellipse cx="926.8235294117646" cy="531.7647058823529" rx="438.5882352941177" ry="162.7058823529412" fill="#c9bddf"/>
  </g>
  <g filter="url(#paper)">
    <path d="M712.9 195.7 C 872.9 105.7, 608.5 311.6, 728.5 191.6" fill="none" stroke="#292524" stroke-opacity="0.1" stroke-width="1"/>
    <path d="M932.9 548.6 C 1092.9 458.6, 338.3 565.8, 458.3 445.8" fill="none" stroke="#292524" stroke-opacity="0.125" stroke-width="2"/>
    <path d="M838.0 550.6 C 998.0 460.6, 571.1 260.8, 691.1 140.8" fill="none" stroke="#292524" stroke-opacity="0.15000000000000002" stroke-width="3"/>
    <path d="M294.5 385.9 C 454.5 295.9, 184.5 503.6, 304.5 383.6" fill="none" stroke="#292524" stroke-opacity="0.17500000000000002" stroke-width="1"/>
    <path d="M1071.0 258.4 C 1231.0 168.4, 745.6 599.6, 865.6 479.6" fill="none" stroke="#292524" stroke-opacity="0.2" stroke-width="2"/>
    <path d="M1075.3 368.2 C 1235.3 278.2, 72.2 558.2, 192.2 438.2" fill="none" stroke="#292524" stroke-opacity="0.1" stroke-width="3"/>
    <path d="M712.9 185.9 C 872.9 95.9, 608.5 321.1, 728.5 201.1" fill="none" stroke="#292524" stroke-opacity="0.125" stroke-width="1"/>
    <path d="M432.5 450.6 C 592.5 360.6, 820.5 659.9, 940.5 539.9" fill="none" stroke="#292524" stroke-opacity="0.15000000000000002" stroke-width="2"/>
    <path d="M674.1 132.9 C 834.1 42.9, 729.0 661.8, 849.0 541.8" fill="none" stroke="#292524" stroke-opacity="0.17500000000000002" stroke-width="3"/>
    <path d="M272.9 385.9 C 432.9 295.9, 205.3 503.6, 325.3 383.6" fill="none" stroke="#292524" stroke-opacity="0.2" stroke-width="1"/>
    <path d="M855.3 485.9 C 1015.3 395.9, 953.5 381.3, 1073.5 261.3" fill="none" stroke="#292524" stroke-opacity="0.1" stroke-width="2"/>
    <path d="M156.5 442.7 C 316.5 352.7, 957.6 486.7, 1077.6 366.7" fill="none" stroke="#292524" stroke-opacity="0.125" stroke-width="3"/>
    <path d="M712.9 195.7 C 872.9 105.7, 608.5 311.6, 728.5 191.6" fill="none" stroke="#292524" stroke-opacity="0.15000000000000002" stroke-width="1"/>
    <path d="M932.9 548.6 C 1092.9 458.6, 338.3 565.8, 458.3 445.8" fill="none" stroke="#292524" stroke-opacity="0.17500000000000002" stroke-width="2"/>
    <path d="M120 610 C260 500 360 560 480 450 C610 330 760 430 900 300 C1000 210 1090 240 1140 200" fill="none" stroke="#292524" stroke-opacity="0.28" stroke-width="4"/>
    <circle cx="210" cy="590" r="9" fill="#292524" fill-opacity="0.25"/>
    <circle cx="515" cy="430" r="9" fill="#292524" fill-opacity="0.22"/>
    <circle cx="890" cy="315" r="9" fill="#292524" fill-opacity="0.2"/>
  </g>
</svg>