<svg xmlns="http://www.w3.org/2000/svg" viewBox="0 0 1200 760" role="img" aria-label="Watercolor destination illustration for Longmen Grottoes">
  <defs>
    <filter id="paper" x="-10%" y="-10%" width="120%" height="120%">
      <feTurbulence type="fractalNoise" baseFrequency="0.012" numOctaves="4" seed="58" result="noise"/>
      <feColorMatrix type="saturate" values="0.25"/>
      <feBlend in="SourceGraphic" in2="noise" mode="multiply"/>
    </filter>
    <filter id="bleed">
      <feGaussianBlur stdDeviation="24"/>
    </filter>
  </defs>
  <rect width="1200" height="760" fill="#f5f5f5"/>
  <g filter="url(#bleed)" opacity="0.9">
    <ellipse cx="447.21568627450984" cy="210.94117647058823" rx="372.3921568627451" ry="171.1764705882353" fill="#bed8eb"/>
    <ellipse cx="857.8039215686274" cy="344.54901960784315" rx="294.27450980392155" ry="186.58823529411765" fill="#e6b8c2"/>
    <ellipse cx="850.9019607843137" cy="601.1764705882354" rx="413.4901960784314" ry="156.58823529411765" fill="#e9dcc5"/>
  </g>
  <g filter="url(#paper)">
    <path d="M976.1 168.2 C 1136.1 78.2, 151.2 533.8, 271.2 413.8" fill="none" stroke="#292524" stroke-opacity="0.1" stroke-width="1"/>
    <path d="M290.2 460.4 C 450.2 370.4, 9.9 490.5, 129.9 370.5" fill="none" stroke="#292524" stroke-opacity="0.125" stroke-width="2"/>
    <path d="M950.2 272.2 C 1110.2 182.2, 205.3 236.4, 325.3 116.4" fill="none" stroke="#292524" stroke-opacity="0.15000000000000002" stroke-width="3"/>
    <path d="M234.1 170.2 C 394.1 80.2, 675.0 618.5, 795.0 498.5" fill="none" stroke="#292524" stroke-opacity="0.17500000000000002" stroke-width="1"/>
    <path d="M876.9 103.5 C 1036.9 13.5, 579.4 319.2, 699.4 199.2" fill="none" stroke="#292524" stroke-opacity="0.2" stroke-width="2"/>
    <path d="M462.7 195.7 C 622.7 105.7, 18.2 607.2, 138.2 487.2" fill="none" stroke="#292524" stroke-opacity="0.1" stroke-width="3"/>
    <path d="M238.4 417.3 C 398.4 327.3, 862.0 294.7, 982.0 174.7" fill="none" stroke="#292524" stroke-opacity="0.125" stroke-width="1"/>
    <path d="M91.8 372.2 C 251.8 282.2, 201.1 575.2, 321.1 455.2" fill="none" stroke="#292524" stroke-opacity="0.15000000000000002" stroke-width="2"/>
    <path d="M294.5 107.5 C 454.5 17.5, 837.1 394.5, 957.1 274.5" fill="none" stroke="#292524" stroke-opacity="0.17500000000000002" stroke-width="3"/>
    <path d="M782.0 505.5 C 942.0 415.5, 147.1 296.6, 267.1 176.6" fill="none" stroke="#292524" stroke-opacity="0.2" stroke-width="1"/>
    <path d="M682.7 193.7 C 842.7 103.7, 766.4 232.6, 886.4 112.6" fill="none" stroke="#292524" stroke-opacity="0.1" stroke-width="2"/>
    <path d="M100.4 493.7 C 260.4 403.7, 367.4 321.1, 487.4 201.1" fill="none" stroke="#292524" stroke-opacity="0.125" stroke-width="3"/>
    <path d="M976.1 168.2 C 1136.1 78.2, 151.2 533.8, 271.2 413.8" fill="none" stroke="#292524" stroke-opacity="0.15000000000000002" stroke-width="1"/>
    <path d="M290.2 460.4 C 450.2 370.4, 9.9 490.5, 129.9 370.5" fill="none" stroke="#292524" stroke-opacity="0.17500000000000002" stroke-width="2"/>
    <path d="M120 610 C260 500 360 560 480 450 C610 330 760 430 900 300 C1000 210 1090 240 1140 200" fill="none" stroke="#292524" stroke-opacity="0.28" stroke-width="4"/>
    <circle cx="210" cy="590" r="9" fill="#292524" fill-opacity="0.25"/>
    <circle cx="515" cy="430" r="9" fill="#292524" fill-opacity="0.22"/>
    <circle cx="890" cy="315" r="9" fill="#292524" fill-opacity="0.2"/>
  </g>
</svg>