<svg xmlns="http://www.w3.org/2000/svg" viewBox="0 0 1200 760" role="img" aria-label="Watercolor destination illustration for Yellow Crane Tower">
  <defs>
    <filter id="paper" x="-10%" y="-10%" width="120%" height="120%">
      <feTurbulence type="fractalNoise" baseFrequency="0.012" numOctaves="4" seed="44" result="noise"/>
      <feColorMatrix type="saturate" values="0.25"/>
      <feBlend in="SourceGraphic" in2="noise" mode="multiply"/>
    </filter>
    <filter id="bleed">
      <feGaussianBlur stdDeviation="24"/>
    </filter>
  </defs>
  <rect width="1200" height="760" fill="#f5f5f5"/>
  <g filter="url(#bleed)" opacity="0.9">
    <ellipse cx="369.5686274509804" cy="201.05882352941177" rx="243.76470588235293" ry="263.88235294117646" fill="#d6d1e8"/>
    <ellipse cx="798.6666666666666" cy="402.3529411764706" rx="366.54901960784315" ry="234.35294117647058" fill="#c5e0d7"/>
    <ellipse cx="903.5294117647059" cy="537.6470588235294" rx="404.70588235294116" ry="208.35294117647058" fill="#efc6b1"/>
  </g>
  <g filter="url(#paper)">
    <path d="M587.8 554.5 C 747.8 464.5, 554.4 330.5, 674.4 210.5" fill="none" stroke="#292524" stroke-opacity="0.1" stroke-width="1"/>
    <path d="M229.8 346.7 C 389.8 256.7, 371.5 464.1, 491.5 344.1" fill="none" stroke="#292524" stroke-opacity="0.125" stroke-width="2"/>
    <path d="M65.9 403.5 C 225.9 313.5, 458.8 443.4, 578.8 323.4" fill="none" stroke="#292524" stroke-opacity="0.15000000000000002" stroke-width="3"/>
    <path d="M1083.9 360.4 C 1243.9 270.4, 226.0 449.1, 346.0 329.1" fill="none" stroke="#292524" stroke-opacity="0.17500000000000002" stroke-width="1"/>
    <path d="M626.7 274.1 C 786.7 184.1, 521.2 292.8, 641.2 172.8" fill="none" stroke="#292524" stroke-opacity="0.2" stroke-width="2"/>
    <path d="M751.8 315.3 C 911.8 225.3, 475.5 221.3, 595.5 101.3" fill="none" stroke="#292524" stroke-opacity="0.1" stroke-width="3"/>
    <path d="M656.9 205.5 C 816.9 115.5, 487.9 665.5, 607.9 545.5" fill="none" stroke="#292524" stroke-opacity="0.125" stroke-width="1"/>
    <path d="M467.1 344.7 C 627.1 254.7, 142.9 466.0, 262.9 346.0" fill="none" stroke="#292524" stroke-opacity="0.15000000000000002" stroke-width="2"/>
    <path d="M557.6 323.1 C 717.6 233.1, -15.1 520.6, 104.9 400.6" fill="none" stroke="#292524" stroke-opacity="0.17500000000000002" stroke-width="3"/>
    <path d="M316.1 329.0 C 476.1 239.0, 966.0 479.2, 1086.0 359.2" fill="none" stroke="#292524" stroke-opacity="0.2" stroke-width="1"/>
    <path d="M622.4 166.3 C 782.4 76.3, 525.3 396.4, 645.3 276.4" fill="none" stroke="#292524" stroke-opacity="0.1" stroke-width="2"/>
    <path d="M574.9 91.8 C 734.9 1.8, 645.9 435.9, 765.9 315.9" fill="none" stroke="#292524" stroke-opacity="0.125" stroke-width="3"/>
    <path d="M587.8 554.5 C 747.8 464.5, 554.4 330.5, 674.4 210.5" fill="none" stroke="#292524" stroke-opacity="0.15000000000000002" stroke-width="1"/>
    <path d="M229.8 346.7 C 389.8 256.7, 371.5 464.1, 491.5 344.1" fill="none" stroke="#292524" stroke-opacity="0.17500000000000002" stroke-width="2"/>
    <path d="M120 610 C260 500 360 560 480 450 C610 330 760 430 900 300 C1000 210 1090 240 1140 200" fill="none" stroke="#292524" stroke-opacity="0.28" stroke-width="4"/>
    <circle cx="210" cy="590" r="9" fill="#292524" fill-opacity="0.25"/>
    <circle cx="515" cy="430" r="9" fill="#292524" fill-opacity="0.22"/>
    <circle cx="890" cy="315" r="9" fill="#292524" fill-opacity="0.2"/>
  </g>
</svg>