<svg xmlns="http://www.w3.org/2000/svg" viewBox="0 0 1200 760" role="img" aria-label="Watercolor destination illustration for Mogao Caves">
  <defs>
    <filter id="paper" x="-10%" y="-10%" width="120%" height="120%">
      <feTurbulence type="fractalNoise" baseFrequency="0.012" numOctaves="4" seed="138" result="noise"/>
      <feColorMatrix type="saturate" values="0.25"/>
      <feBlend in="SourceGraphic" in2="noise" mode="multiply"/>
    </filter>
    <filter id="bleed">
      <feGaussianBlur stdDeviation="24"/>
    </filter>
  </defs>
  <rect width="1200" height="760" fill="#f5f5f5"/>
  <g filter="url(#bleed)" opacity="0.9">
    <ellipse cx="398.9019607843137" cy="267.4117647058823" rx="376.156862745098" ry="263.88235294117646" fill="#bed8eb"/>
    <ellipse cx="666.1176470588235" cy="379.05882352941177" rx="429.1372549019608" ry="278.27450980392155" fill="#e6b8c2"/>
    <ellipse cx="846.5882352941177" cy="522.3529411764706" rx="410.98039215686276" ry="259.1764705882353" fill="#e9dcc5"/>
  </g>
  <g filter="url(#paper)">
    <path d="M734.5 554.5 C 894.5 464.5, 903.6 281.5, 1023.6 161.5" fill="none" stroke="#292524" stroke-opacity="0.1" stroke-width="1"/>
    <path d="M635.3 91.8 C 795.3 1.8, 704.1 482.9, 824.1 362.9" fill="none" stroke="#292524" stroke-opacity="0.125" stroke-width="2"/>
    <path d="M976.1 350.6 C 1136.1 260.6, 184.5 646.7, 304.5 526.7" fill="none" stroke="#292524" stroke-opacity="0.15000000000000002" stroke-width="3"/>
    <path d="M1083.9 525.1 C 1243.9 435.1, 118.0 513.1, 238.0 393.1" fill="none" stroke="#292524" stroke-opacity="0.17500000000000002" stroke-width="1"/>
    <path d="M65.9 431.0 C 225.9 341.0, 562.7 469.8, 682.7 349.8" fill="none" stroke="#292524" stroke-opacity="0.2" stroke-width="2"/>
    <path d="M635.3 185.9 C 795.3 95.9, 924.4 618.5, 1044.4 498.5" fill="none" stroke="#292524" stroke-opacity="0.1" stroke-width="3"/>
    <path d="M1019.2 154.5 C 1179.2 64.5, 629.3 665.5, 749.3 545.5" fill="none" stroke="#292524" stroke-opacity="0.125" stroke-width="1"/>
    <path d="M812.2 364.3 C 972.2 274.3, 533.6 221.3, 653.6 101.3" fill="none" stroke="#292524" stroke-opacity="0.15000000000000002" stroke-width="2"/>
    <path d="M272.9 534.9 C 432.9 444.9, 862.0 469.8, 982.0 349.8" fill="none" stroke="#292524" stroke-opacity="0.17500000000000002" stroke-width="3"/>
    <path d="M203.9 395.7 C 363.9 305.7, 966.0 637.3, 1086.0 517.3" fill="none" stroke="#292524" stroke-opacity="0.2" stroke-width="1"/>
    <path d="M665.5 350.6 C 825.5 260.6, -15.1 546.9, 104.9 426.9" fill="none" stroke="#292524" stroke-opacity="0.1" stroke-width="2"/>
    <path d="M1040.8 505.5 C 1200.8 415.5, 533.6 311.6, 653.6 191.6" fill="none" stroke="#292524" stroke-opacity="0.125" stroke-width="3"/>
    <path d="M734.5 554.5 C 894.5 464.5, 903.6 281.5, 1023.6 161.5" fill="none" stroke="#292524" stroke-opacity="0.15000000000000002" stroke-width="1"/>
    <path d="M635.3 91.8 C 795.3 1.8, 704.1 482.9, 824.1 362.9" fill="none" stroke="#292524" stroke-opacity="0.17500000000000002" stroke-width="2"/>
    <path d="M120 610 C260 500 360 560 480 450 C610 330 760 430 900 300 C1000 210 1090 240 1140 200" fill="none" stroke="#292524" stroke-opacity="0.28" stroke-width="4"/>
    <circle cx="210" cy="590" r="9" fill="#292524" fill-opacity="0.25"/>
    <circle cx="515" cy="430" r="9" fill="#292524" fill-opacity="0.22"/>
    <circle cx="890" cy="315" r="9" fill="#292524" fill-opacity="0.2"/>
  </g>
</svg>