<svg xmlns="http://www.w3.org/2000/svg" viewBox="0 0 1200 760" role="img" aria-label="Watercolor destination illustration for Qinghai Lake">
  <defs>
    <filter id="paper" x="-10%" y="-10%" width="120%" height="120%">
      <feTurbulence type="fractalNoise" baseFrequency="0.012" numOctaves="4" seed="243" result="noise"/>
      <feColorMatrix type="saturate" values="0.25"/>
      <feBlend in="SourceGraphic" in2="noise" mode="multiply"/>
    </filter>
    <filter id="bleed">
      <feGaussianBlur stdDeviation="24"/>
    </filter>
  </defs>
  <rect width="1200" height="760" fill="#f5f5f5"/>
  <g filter="url(#bleed)" opacity="0.9">
    <ellipse cx="372.156862745098" cy="341.52941176470586" rx="355.45098039215685" ry="175.41176470588235" fill="#d8cab6"/>
    <ellipse cx="706.9019607843137" cy="348.8627450980392" rx="365.05882352941177" ry="251.37254901960785" fill="#b8d7cc"/>
    <ellipse cx="960.4705882352941" cy="626.4705882352941" rx="416.62745098039215" ry="200.35294117647058" fill="#f0c7a7"/>
  </g>
  <g filter="url(#paper)">
    <path d="M600.8 185.9 C 760.8 95.9, 546.1 614.7, 666.1 494.7" fill="none" stroke="#292524" stroke-opacity="0.1" stroke-width="1"/>
    <path d="M1088.2 170.2 C 1248.2 80.2, 500.4 499.9, 620.4 379.9" fill="none" stroke="#292524" stroke-opacity="0.125" stroke-width="2"/>
    <path d="M833.7 282.0 C 993.7 192.0, 733.2 411.4, 853.2 291.4" fill="none" stroke="#292524" stroke-opacity="0.15000000000000002" stroke-width="3"/>
    <path d="M272.9 356.5 C 432.9 266.5, 853.7 454.7, 973.7 334.7" fill="none" stroke="#292524" stroke-opacity="0.17500000000000002" stroke-width="1"/>
    <path d="M238.4 334.9 C 398.4 244.9, 600.2 667.4, 720.2 547.4" fill="none" stroke="#292524" stroke-opacity="0.2" stroke-width="2"/>
    <path d="M484.3 444.7 C 644.3 354.7, 404.8 556.4, 524.8 436.4" fill="none" stroke="#292524" stroke-opacity="0.1" stroke-width="3"/>
    <path d="M648.2 501.6 C 808.2 411.6, 500.4 311.6, 620.4 191.6" fill="none" stroke="#292524" stroke-opacity="0.125" stroke-width="1"/>
    <path d="M600.8 382.0 C 760.8 292.0, 970.1 296.6, 1090.1 176.6" fill="none" stroke="#292524" stroke-opacity="0.15000000000000002" stroke-width="2"/>
    <path d="M842.4 289.8 C 1002.4 199.8, 724.9 403.9, 844.9 283.9" fill="none" stroke="#292524" stroke-opacity="0.17500000000000002" stroke-width="3"/>
    <path d="M967.5 334.9 C 1127.5 244.9, 184.5 475.4, 304.5 355.4" fill="none" stroke="#292524" stroke-opacity="0.2" stroke-width="1"/>
    <path d="M704.3 556.5 C 864.3 466.5, 151.2 454.7, 271.2 334.7" fill="none" stroke="#292524" stroke-opacity="0.1" stroke-width="2"/>
    <path d="M501.6 440.8 C 661.6 350.8, 388.2 560.1, 508.2 440.1" fill="none" stroke="#292524" stroke-opacity="0.125" stroke-width="3"/>
    <path d="M600.8 185.9 C 760.8 95.9, 546.1 614.7, 666.1 494.7" fill="none" stroke="#292524" stroke-opacity="0.15000000000000002" stroke-width="1"/>
    <path d="M1088.2 170.2 C 1248.2 80.2, 500.4 499.9, 620.4 379.9" fill="none" stroke="#292524" stroke-opacity="0.17500000000000002" stroke-width="2"/>
    <path d="M120 610 C260 500 360 560 480 450 C610 330 760 430 900 300 C1000 210 1090 240 1140 200" fill="none" stroke="#292524" stroke-opacity="0.28" stroke-width="4"/>
    <circle cx="210" cy="590" r="9" fill="#292524" fill-opacity="0.25"/>
    <circle cx="515" cy="430" r="9" fill="#292524" fill-opacity="0.22"/>
    <circle cx="890" cy="315" r="9" fill="#292524" fill-opacity="0.2"/>
  </g>
</svg>