<svg xmlns="http://www.w3.org/2000/svg" viewBox="0 0 1200 760" role="img" aria-label="Watercolor destination illustration for Hulunbuir">
  <defs>
    <filter id="paper" x="-10%" y="-10%" width="120%" height="120%">
      <feTurbulence type="fractalNoise" baseFrequency="0.012" numOctaves="4" seed="221" result="noise"/>
      <feColorMatrix type="saturate" values="0.25"/>
      <feBlend in="SourceGraphic" in2="noise" mode="multiply"/>
    </filter>
    <filter id="bleed">
      <feGaussianBlur stdDeviation="24"/>
    </filter>
  </defs>
  <rect width="1200" height="760" fill="#f5f5f5"/>
  <g filter="url(#bleed)" opacity="0.9">
    <ellipse cx="404.94117647058823" cy="326" rx="372.3921568627451" ry="243.6470588235294" fill="#c7dfd4"/>
    <ellipse cx="663.0588235294117" cy="418.7450980392157" rx="353.1372549019608" ry="233.2549019607843" fill="#efc3a7"/>
    <ellipse cx="954.4313725490196" cy="533.5294117647059" rx="397.1764705882353" ry="217.29411764705884" fill="#c9bddf"/>
  </g>
  <g filter="url(#paper)">
    <path d="M764.7 470.2 C 924.7 380.2, 479.6 317.3, 599.6 197.3" fill="none" stroke="#292524" stroke-opacity="0.1" stroke-width="1"/>
    <path d="M993.3 85.9 C 1153.3 -4.1, 363.2 441.5, 483.2 321.5" fill="none" stroke="#292524" stroke-opacity="0.125" stroke-width="2"/>
    <path d="M950.2 440.8 C 1110.2 350.8, 704.1 479.2, 824.1 359.2" fill="none" stroke="#292524" stroke-opacity="0.15000000000000002" stroke-width="3"/>
    <path d="M898.4 325.1 C 1058.4 235.1, 196.9 526.2, 316.9 406.2" fill="none" stroke="#292524" stroke-opacity="0.17500000000000002" stroke-width="1"/>
    <path d="M52.9 270.2 C 212.9 180.2, 471.3 626.0, 591.3 506.0" fill="none" stroke="#292524" stroke-opacity="0.2" stroke-width="2"/>
    <path d="M833.7 431.0 C 993.7 341.0, 554.4 607.2, 674.4 487.2" fill="none" stroke="#292524" stroke-opacity="0.1" stroke-width="3"/>
    <path d="M579.2 191.8 C 739.2 101.8, 658.4 584.6, 778.4 464.6" fill="none" stroke="#292524" stroke-opacity="0.125" stroke-width="1"/>
    <path d="M458.4 321.2 C 618.4 231.2, 878.7 215.6, 998.7 95.6" fill="none" stroke="#292524" stroke-opacity="0.15000000000000002" stroke-width="2"/>
    <path d="M812.2 360.4 C 972.2 270.4, 837.1 556.4, 957.1 436.4" fill="none" stroke="#292524" stroke-opacity="0.17500000000000002" stroke-width="3"/>
    <path d="M285.9 409.4 C 445.9 319.4, 787.2 445.3, 907.2 325.3" fill="none" stroke="#292524" stroke-opacity="0.2" stroke-width="1"/>
    <path d="M570.6 513.3 C 730.6 423.3, -27.5 392.6, 92.5 272.6" fill="none" stroke="#292524" stroke-opacity="0.1" stroke-width="2"/>
    <path d="M656.9 493.7 C 816.9 403.7, 724.9 546.9, 844.9 426.9" fill="none" stroke="#292524" stroke-opacity="0.125" stroke-width="3"/>
    <path d="M764.7 470.2 C 924.7 380.2, 479.6 317.3, 599.6 197.3" fill="none" stroke="#292524" stroke-opacity="0.15000000000000002" stroke-width="1"/>
    <path d="M993.3 85.9 C 1153.3 -4.1, 363.2 441.5, 483.2 321.5" fill="none" stroke="#292524" stroke-opacity="0.17500000000000002" stroke-width="2"/>
    <path d="M120 610 C260 500 360 560 480 450 C610 330 760 430 900 300 C1000 210 1090 240 1140 200" fill="none" stroke="#292524" stroke-opacity="0.28" stroke-width="4"/>
    <circle cx="210" cy="590" r="9" fill="#292524" fill-opacity="0.25"/>
    <circle cx="515" cy="430" r="9" fill="#292524" fill-opacity="0.22"/>
    <circle cx="890" cy="315" r="9" fill="#292524" fill-opacity="0.2"/>
  </g>
</svg>