<svg xmlns="http://www.w3.org/2000/svg" viewBox="0 0 1200 760" role="img" aria-label="Watercolor destination illustration for Classical Gardens of Suzhou">
  <defs>
    <filter id="paper" x="-10%" y="-10%" width="120%" height="120%">
      <feTurbulence type="fractalNoise" baseFrequency="0.012" numOctaves="4" seed="106" result="noise"/>
      <feColorMatrix type="saturate" values="0.25"/>
      <feBlend in="SourceGraphic" in2="noise" mode="multiply"/>
    </filter>
    <filter id="bleed">
      <feGaussianBlur stdDeviation="24"/>
    </filter>
  </defs>
  <rect width="1200" height="760" fill="#f5f5f5"/>
  <g filter="url(#bleed)" opacity="0.9">
    <ellipse cx="436.8627450980392" cy="244.8235294117647" rx="300.2352941176471" ry="199.88235294117646" fill="#bed8eb"/>
    <ellipse cx="747.686274509804" cy="475.6862745098039" rx="350.9019607843137" ry="238.19607843137254" fill="#e6b8c2"/>
    <ellipse cx="971.686274509804" cy="649.4117647058823" rx="472.47058823529414" ry="206" fill="#e9dcc5"/>
  </g>
  <g filter="url(#paper)">
    <path d="M924.3 287.8 C 1084.3 197.8, 467.1 688.1, 587.1 568.1" fill="none" stroke="#292524" stroke-opacity="0.1" stroke-width="1"/>
    <path d="M497.3 248.6 C 657.3 158.6, 400.6 667.4, 520.6 547.4" fill="none" stroke="#292524" stroke-opacity="0.125" stroke-width="2"/>
    <path d="M454.1 570.2 C 614.1 480.2, 787.2 434.0, 907.2 314.0" fill="none" stroke="#292524" stroke-opacity="0.15000000000000002" stroke-width="3"/>
    <path d="M497.3 319.2 C 657.3 229.2, 1015.8 595.9, 1135.8 475.9" fill="none" stroke="#292524" stroke-opacity="0.17500000000000002" stroke-width="1"/>
    <path d="M411.0 287.8 C 571.0 197.8, 970.1 409.5, 1090.1 289.5" fill="none" stroke="#292524" stroke-opacity="0.2" stroke-width="2"/>
    <path d="M1118.4 470.2 C 1278.4 380.2, 454.7 390.7, 574.7 270.7" fill="none" stroke="#292524" stroke-opacity="0.1" stroke-width="3"/>
    <path d="M566.3 578.0 C 726.3 488.0, 812.2 409.5, 932.2 289.5" fill="none" stroke="#292524" stroke-opacity="0.125" stroke-width="1"/>
    <path d="M497.3 556.5 C 657.3 466.5, 400.6 371.9, 520.6 251.9" fill="none" stroke="#292524" stroke-opacity="0.15000000000000002" stroke-width="2"/>
    <path d="M898.4 313.3 C 1058.4 223.3, 359.1 680.6, 479.1 560.6" fill="none" stroke="#292524" stroke-opacity="0.17500000000000002" stroke-width="3"/>
    <path d="M1135.7 482.0 C 1295.7 392.0, 400.6 439.6, 520.6 319.6" fill="none" stroke="#292524" stroke-opacity="0.2" stroke-width="1"/>
    <path d="M1088.2 287.8 C 1248.2 197.8, 317.5 409.5, 437.5 289.5" fill="none" stroke="#292524" stroke-opacity="0.1" stroke-width="2"/>
    <path d="M553.3 268.2 C 713.3 178.2, 999.2 584.6, 1119.2 464.6" fill="none" stroke="#292524" stroke-opacity="0.125" stroke-width="3"/>
    <path d="M924.3 287.8 C 1084.3 197.8, 467.1 688.1, 587.1 568.1" fill="none" stroke="#292524" stroke-opacity="0.15000000000000002" stroke-width="1"/>
    <path d="M497.3 248.6 C 657.3 158.6, 400.6 667.4, 520.6 547.4" fill="none" stroke="#292524" stroke-opacity="0.17500000000000002" stroke-width="2"/>
    <path d="M120 610 C260 500 360 560 480 450 C610 330 760 430 900 300 C1000 210 1090 240 1140 200" fill="none" stroke="#292524" stroke-opacity="0.28" stroke-width="4"/>
    <circle cx="210" cy="590" r="9" fill="#292524" fill-opacity="0.25"/>
    <circle cx="515" cy="430" r="9" fill="#292524" fill-opacity="0.22"/>
    <circle cx="890" cy="315" r="9" fill="#292524" fill-opacity="0.2"/>
  </g>
</svg>