<svg xmlns="http://www.w3.org/2000/svg" viewBox="0 0 1200 760" role="img" aria-label="Watercolor destination illustration for Chengdu Research Base of Giant Panda Breeding">
  <defs>
    <filter id="paper" x="-10%" y="-10%" width="120%" height="120%">
      <feTurbulence type="fractalNoise" baseFrequency="0.012" numOctaves="4" seed="32" result="noise"/>
      <feColorMatrix type="saturate" values="0.25"/>
      <feBlend in="SourceGraphic" in2="noise" mode="multiply"/>
    </filter>
    <filter id="bleed">
      <feGaussianBlur stdDeviation="24"/>
    </filter>
  </defs>
  <rect width="1200" height="760" fill="#f5f5f5"/>
  <g filter="url(#bleed)" opacity="0.9">
    <ellipse cx="435.1372549019608" cy="192.58823529411765" rx="284.54901960784315" ry="269.52941176470586" fill="#d6d1e8"/>
    <ellipse cx="905.7254901960785" cy="350.5882352941176" rx="448.5098039215686" ry="270.5882352941177" fill="#c5e0d7"/>
    <ellipse cx="804.3137254901961" cy="569.4117647058823" rx="358.9019607843137" ry="195.6470588235294" fill="#efc6b1"/>
  </g>
  <g filter="url(#paper)">
    <path d="M915.7 578.0 C 1075.7 488.0, 1011.7 432.1, 1131.7 312.1" fill="none" stroke="#292524" stroke-opacity="0.1" stroke-width="1"/>
    <path d="M178.0 552.5 C 338.0 462.5, 645.9 326.7, 765.9 206.7" fill="none" stroke="#292524" stroke-opacity="0.125" stroke-width="2"/>
    <path d="M346.3 285.9 C 506.3 195.9, -19.2 392.6, 100.8 272.6" fill="none" stroke="#292524" stroke-opacity="0.15000000000000002" stroke-width="3"/>
    <path d="M1135.7 576.1 C 1295.7 486.1, 450.5 592.1, 570.5 472.1" fill="none" stroke="#292524" stroke-opacity="0.17500000000000002" stroke-width="1"/>
    <path d="M1079.6 403.5 C 1239.6 313.5, 217.7 270.2, 337.7 150.2" fill="none" stroke="#292524" stroke-opacity="0.2" stroke-width="2"/>
    <path d="M492.9 89.8 C 652.9 -0.2, 363.2 343.6, 483.2 223.6" fill="none" stroke="#292524" stroke-opacity="0.1" stroke-width="3"/>
    <path d="M1131.4 311.4 C 1291.4 221.4, 803.8 688.1, 923.8 568.1" fill="none" stroke="#292524" stroke-opacity="0.125" stroke-width="1"/>
    <path d="M751.8 201.6 C 911.8 111.6, 93.0 663.6, 213.0 543.6" fill="none" stroke="#292524" stroke-opacity="0.15000000000000002" stroke-width="2"/>
    <path d="M61.6 270.2 C 221.6 180.2, 255.1 407.6, 375.1 287.6" fill="none" stroke="#292524" stroke-opacity="0.17500000000000002" stroke-width="3"/>
    <path d="M549.0 478.0 C 709.0 388.0, 1015.8 686.2, 1135.8 566.2" fill="none" stroke="#292524" stroke-opacity="0.2" stroke-width="1"/>
    <path d="M307.5 142.7 C 467.5 52.7, 961.8 520.6, 1081.8 400.6" fill="none" stroke="#292524" stroke-opacity="0.1" stroke-width="2"/>
    <path d="M458.4 219.2 C 618.4 129.2, 396.5 219.4, 516.5 99.4" fill="none" stroke="#292524" stroke-opacity="0.125" stroke-width="3"/>
    <path d="M915.7 578.0 C 1075.7 488.0, 1011.7 432.1, 1131.7 312.1" fill="none" stroke="#292524" stroke-opacity="0.15000000000000002" stroke-width="1"/>
    <path d="M178.0 552.5 C 338.0 462.5, 645.9 326.7, 765.9 206.7" fill="none" stroke="#292524" stroke-opacity="0.17500000000000002" stroke-width="2"/>
    <path d="M120 610 C260 500 360 560 480 450 C610 330 760 430 900 300 C1000 210 1090 240 1140 200" fill="none" stroke="#292524" stroke-opacity="0.28" stroke-width="4"/>
    <circle cx="210" cy="590" r="9" fill="#292524" fill-opacity="0.25"/>
    <circle cx="515" cy="430" r="9" fill="#292524" fill-opacity="0.22"/>
    <circle cx="890" cy="315" r="9" fill="#292524" fill-opacity="0.2"/>
  </g>
</svg>