<svg xmlns="http://www.w3.org/2000/svg" viewBox="0 0 1200 760" role="img" aria-label="Watercolor destination illustration for Harbin International Ice and Snow Sculpture Festival">
  <defs>
    <filter id="paper" x="-10%" y="-10%" width="120%" height="120%">
      <feTurbulence type="fractalNoise" baseFrequency="0.012" numOctaves="4" seed="232" result="noise"/>
      <feColorMatrix type="saturate" values="0.25"/>
      <feBlend in="SourceGraphic" in2="noise" mode="multiply"/>
    </filter>
    <filter id="bleed">
      <feGaussianBlur stdDeviation="24"/>
    </filter>
  </defs>
  <rect width="1200" height="760" fill="#f5f5f5"/>
  <g filter="url(#bleed)" opacity="0.9">
    <ellipse cx="303.1372549019608" cy="333.7647058823529" rx="333.4901960784314" ry="191.41176470588235" fill="#d8cab6"/>
    <ellipse cx="751.7647058823529" cy="470.5098039215686" rx="441.05882352941177" ry="233.80392156862746" fill="#b8d7cc"/>
    <ellipse cx="839.686274509804" cy="590" rx="409.0980392156863" ry="173.05882352941177" fill="#f0c7a7"/>
  </g>
  <g filter="url(#paper)">
    <path d="M255.7 252.5 C 415.7 162.5, 970.1 498.0, 1090.1 378.0" fill="none" stroke="#292524" stroke-opacity="0.1" stroke-width="1"/>
    <path d="M1040.8 256.5 C 1200.8 166.5, 367.4 477.3, 487.4 357.3" fill="none" stroke="#292524" stroke-opacity="0.125" stroke-width="2"/>
    <path d="M682.7 558.4 C 842.7 468.4, 151.2 302.2, 271.2 182.2" fill="none" stroke="#292524" stroke-opacity="0.15000000000000002" stroke-width="3"/>
    <path d="M419.6 556.5 C 579.6 466.5, 596.0 304.1, 716.0 184.1" fill="none" stroke="#292524" stroke-opacity="0.17500000000000002" stroke-width="1"/>
    <path d="M428.2 272.2 C 588.2 182.2, 550.3 646.7, 670.3 526.7" fill="none" stroke="#292524" stroke-opacity="0.2" stroke-width="2"/>
    <path d="M1092.5 170.2 C 1252.5 80.2, 163.7 490.5, 283.7 370.5" fill="none" stroke="#292524" stroke-opacity="0.1" stroke-width="3"/>
    <path d="M1088.2 380.0 C 1248.2 290.0, 167.8 375.6, 287.8 255.6" fill="none" stroke="#292524" stroke-opacity="0.125" stroke-width="1"/>
    <path d="M462.7 358.4 C 622.7 268.4, 924.4 379.4, 1044.4 259.4" fill="none" stroke="#292524" stroke-opacity="0.15000000000000002" stroke-width="2"/>
    <path d="M238.4 176.1 C 398.4 86.1, 579.4 669.3, 699.4 549.3" fill="none" stroke="#292524" stroke-opacity="0.17500000000000002" stroke-width="3"/>
    <path d="M700.0 178.0 C 860.0 88.0, 325.8 667.4, 445.8 547.4" fill="none" stroke="#292524" stroke-opacity="0.2" stroke-width="1"/>
    <path d="M652.5 534.9 C 812.5 444.9, 334.1 394.5, 454.1 274.5" fill="none" stroke="#292524" stroke-opacity="0.1" stroke-width="2"/>
    <path d="M251.4 372.2 C 411.4 282.2, 974.3 296.6, 1094.3 176.6" fill="none" stroke="#292524" stroke-opacity="0.125" stroke-width="3"/>
    <path d="M255.7 252.5 C 415.7 162.5, 970.1 498.0, 1090.1 378.0" fill="none" stroke="#292524" stroke-opacity="0.15000000000000002" stroke-width="1"/>
    <path d="M1040.8 256.5 C 1200.8 166.5, 367.4 477.3, 487.4 357.3" fill="none" stroke="#292524" stroke-opacity="0.17500000000000002" stroke-width="2"/>
    <path d="M120 610 C260 500 360 560 480 450 C610 330 760 430 900 300 C1000 210 1090 240 1140 200" fill="none" stroke="#292524" stroke-opacity="0.28" stroke-width="4"/>
    <circle cx="210" cy="590" r="9" fill="#292524" fill-opacity="0.25"/>
    <circle cx="515" cy="430" r="9" fill="#292524" fill-opacity="0.22"/>
    <circle cx="890" cy="315" r="9" fill="#292524" fill-opacity="0.2"/>
  </g>
</svg>