<svg xmlns="http://www.w3.org/2000/svg" viewBox="0 0 1200 760" role="img" aria-label="Watercolor destination illustration for Victoria Harbour">
  <defs>
    <filter id="paper" x="-10%" y="-10%" width="120%" height="120%">
      <feTurbulence type="fractalNoise" baseFrequency="0.012" numOctaves="4" seed="112" result="noise"/>
      <feColorMatrix type="saturate" values="0.25"/>
      <feBlend in="SourceGraphic" in2="noise" mode="multiply"/>
    </filter>
    <filter id="bleed">
      <feGaussianBlur stdDeviation="24"/>
    </filter>
  </defs>
  <rect width="1200" height="760" fill="#f5f5f5"/>
  <g filter="url(#bleed)" opacity="0.9">
    <ellipse cx="455.843137254902" cy="249.05882352941177" rx="347.921568627451" ry="162.23529411764707" fill="#d6d1e8"/>
    <ellipse cx="806.8235294117646" cy="325.5686274509804" rx="291.29411764705884" ry="212.39215686274508" fill="#c5e0d7"/>
    <ellipse cx="813.8039215686274" cy="563.5294117647059" rx="383.37254901960785" ry="190.47058823529412" fill="#efc6b1"/>
  </g>
  <g filter="url(#paper)">
    <path d="M1019.2 131.0 C 1179.2 41.0, 134.6 413.3, 254.6 293.3" fill="none" stroke="#292524" stroke-opacity="0.1" stroke-width="1"/>
    <path d="M523.1 362.4 C 683.1 272.4, 205.3 400.1, 325.3 280.1" fill="none" stroke="#292524" stroke-opacity="0.125" stroke-width="2"/>
    <path d="M782.0 229.0 C 942.0 139.0, 26.5 371.9, 146.5 251.9" fill="none" stroke="#292524" stroke-opacity="0.15000000000000002" stroke-width="3"/>
    <path d="M152.2 162.4 C 312.2 72.4, 408.9 637.3, 528.9 517.3" fill="none" stroke="#292524" stroke-opacity="0.17500000000000002" stroke-width="1"/>
    <path d="M661.2 195.7 C 821.2 105.7, 379.8 420.8, 499.8 300.8" fill="none" stroke="#292524" stroke-opacity="0.2" stroke-width="2"/>
    <path d="M367.8 111.4 C 527.8 21.4, 317.5 533.8, 437.5 413.8" fill="none" stroke="#292524" stroke-opacity="0.1" stroke-width="3"/>
    <path d="M221.2 291.8 C 381.2 201.8, 903.6 258.9, 1023.6 138.9" fill="none" stroke="#292524" stroke-opacity="0.125" stroke-width="1"/>
    <path d="M294.5 278.0 C 454.5 188.0, 425.6 481.1, 545.6 361.1" fill="none" stroke="#292524" stroke-opacity="0.15000000000000002" stroke-width="2"/>
    <path d="M109.0 248.6 C 269.0 158.6, 675.0 353.1, 795.0 233.1" fill="none" stroke="#292524" stroke-opacity="0.17500000000000002" stroke-width="3"/>
    <path d="M505.9 525.1 C 665.9 435.1, 68.1 289.1, 188.1 169.1" fill="none" stroke="#292524" stroke-opacity="0.2" stroke-width="1"/>
    <path d="M475.7 299.6 C 635.7 209.6, 558.6 321.1, 678.6 201.1" fill="none" stroke="#292524" stroke-opacity="0.1" stroke-width="2"/>
    <path d="M411.0 417.3 C 571.0 327.3, 275.9 240.1, 395.9 120.1" fill="none" stroke="#292524" stroke-opacity="0.125" stroke-width="3"/>
    <path d="M1019.2 131.0 C 1179.2 41.0, 134.6 413.3, 254.6 293.3" fill="none" stroke="#292524" stroke-opacity="0.15000000000000002" stroke-width="1"/>
    <path d="M523.1 362.4 C 683.1 272.4, 205.3 400.1, 325.3 280.1" fill="none" stroke="#292524" stroke-opacity="0.17500000000000002" stroke-width="2"/>
    <path d="M120 610 C260 500 360 560 480 450 C610 330 760 430 900 300 C1000 210 1090 240 1140 200" fill="none" stroke="#292524" stroke-opacity="0.28" stroke-width="4"/>
    <circle cx="210" cy="590" r="9" fill="#292524" fill-opacity="0.25"/>
    <circle cx="515" cy="430" r="9" fill="#292524" fill-opacity="0.22"/>
    <circle cx="890" cy="315" r="9" fill="#292524" fill-opacity="0.2"/>
  </g>
</svg>