<svg xmlns="http://www.w3.org/2000/svg" viewBox="0 0 1200 760" role="img" aria-label="Watercolor destination illustration for Jingdezhen">
  <defs>
    <filter id="paper" x="-10%" y="-10%" width="120%" height="120%">
      <feTurbulence type="fractalNoise" baseFrequency="0.012" numOctaves="4" seed="8" result="noise"/>
      <feColorMatrix type="saturate" values="0.25"/>
      <feBlend in="SourceGraphic" in2="noise" mode="multiply"/>
    </filter>
    <filter id="bleed">
      <feGaussianBlur stdDeviation="24"/>
    </filter>
  </defs>
  <rect width="1200" height="760" fill="#f5f5f5"/>
  <g filter="url(#bleed)" opacity="0.9">
    <ellipse cx="466.19607843137254" cy="175.64705882352942" rx="270.11764705882354" ry="230" fill="#d6d1e8"/>
    <ellipse cx="857.8039215686274" cy="443.7647058823529" rx="295.01960784313724" ry="308.47058823529414" fill="#c5e0d7"/>
    <ellipse cx="1014.8235294117646" cy="530" rx="336.94117647058823" ry="263.4117647058823" fill="#efc6b1"/>
  </g>
  <g filter="url(#paper)">
    <path d="M1071.0 413.3 C 1231.0 323.3, 155.4 306.0, 275.4 186.0" fill="none" stroke="#292524" stroke-opacity="0.1" stroke-width="1"/>
    <path d="M74.5 460.4 C 234.5 370.4, 932.7 260.8, 1052.7 140.8" fill="none" stroke="#292524" stroke-opacity="0.125" stroke-width="2"/>
    <path d="M247.1 497.6 C 407.1 407.6, 995.1 663.6, 1115.1 543.6" fill="none" stroke="#292524" stroke-opacity="0.15000000000000002" stroke-width="3"/>
    <path d="M773.3 172.2 C 933.3 82.2, 172.0 659.9, 292.0 539.9" fill="none" stroke="#292524" stroke-opacity="0.17500000000000002" stroke-width="1"/>
    <path d="M876.9 538.8 C 1036.9 448.8, 72.2 225.1, 192.2 105.1" fill="none" stroke="#292524" stroke-opacity="0.2" stroke-width="2"/>
    <path d="M958.8 568.2 C 1118.8 478.2, 961.8 300.4, 1081.8 180.4" fill="none" stroke="#292524" stroke-opacity="0.1" stroke-width="3"/>
    <path d="M242.7 180.0 C 402.7 90.0, 953.5 530.0, 1073.5 410.0" fill="none" stroke="#292524" stroke-opacity="0.125" stroke-width="1"/>
    <path d="M1049.4 132.9 C 1209.4 42.9, -6.7 575.2, 113.3 455.2" fill="none" stroke="#292524" stroke-opacity="0.15000000000000002" stroke-width="2"/>
    <path d="M1114.1 552.5 C 1274.1 462.5, 159.5 610.9, 279.5 490.9" fill="none" stroke="#292524" stroke-opacity="0.17500000000000002" stroke-width="3"/>
    <path d="M260.0 548.6 C 420.0 458.6, 666.7 298.5, 786.7 178.5" fill="none" stroke="#292524" stroke-opacity="0.2" stroke-width="1"/>
    <path d="M156.5 95.7 C 316.5 5.7, 766.4 650.5, 886.4 530.5" fill="none" stroke="#292524" stroke-opacity="0.1" stroke-width="2"/>
    <path d="M1079.6 174.1 C 1239.6 84.1, 845.4 678.7, 965.4 558.7" fill="none" stroke="#292524" stroke-opacity="0.125" stroke-width="3"/>
    <path d="M1071.0 413.3 C 1231.0 323.3, 155.4 306.0, 275.4 186.0" fill="none" stroke="#292524" stroke-opacity="0.15000000000000002" stroke-width="1"/>
    <path d="M74.5 460.4 C 234.5 370.4, 932.7 260.8, 1052.7 140.8" fill="none" stroke="#292524" stroke-opacity="0.17500000000000002" stroke-width="2"/>
    <path d="M120 610 C260 500 360 560 480 450 C610 330 760 430 900 300 C1000 210 1090 240 1140 200" fill="none" stroke="#292524" stroke-opacity="0.28" stroke-width="4"/>
    <circle cx="210" cy="590" r="9" fill="#292524" fill-opacity="0.25"/>
    <circle cx="515" cy="430" r="9" fill="#292524" fill-opacity="0.22"/>
    <circle cx="890" cy="315" r="9" fill="#292524" fill-opacity="0.2"/>
  </g>
</svg>