<svg xmlns="http://www.w3.org/2000/svg" viewBox="0 0 1200 760" role="img" aria-label="Watercolor destination illustration for Chongqing">
  <defs>
    <filter id="paper" x="-10%" y="-10%" width="120%" height="120%">
      <feTurbulence type="fractalNoise" baseFrequency="0.012" numOctaves="4" seed="164" result="noise"/>
      <feColorMatrix type="saturate" values="0.25"/>
      <feBlend in="SourceGraphic" in2="noise" mode="multiply"/>
    </filter>
    <filter id="bleed">
      <feGaussianBlur stdDeviation="24"/>
    </filter>
  </defs>
  <rect width="1200" height="760" fill="#f5f5f5"/>
  <g filter="url(#bleed)" opacity="0.9">
    <ellipse cx="401.4901960784314" cy="285.7647058823529" rx="270.11764705882354" ry="234.23529411764707" fill="#c7dfd4"/>
    <ellipse cx="827.2156862745098" cy="377.3333333333333" rx="298" ry="298.03921568627453" fill="#efc3a7"/>
    <ellipse cx="844" cy="597.0588235294117" rx="431.6862745098039" ry="258.70588235294116" fill="#c9bddf"/>
  </g>
  <g filter="url(#paper)">
    <path d="M747.5 431.0 C 907.5 341.0, 172.0 520.6, 292.0 400.6" fill="none" stroke="#292524" stroke-opacity="0.1" stroke-width="1"/>
    <path d="M747.5 401.6 C 907.5 311.6, 853.7 545.1, 973.7 425.1" fill="none" stroke="#292524" stroke-opacity="0.125" stroke-width="2"/>
    <path d="M247.1 346.7 C 407.1 256.7, 172.0 644.8, 292.0 524.8" fill="none" stroke="#292524" stroke-opacity="0.15000000000000002" stroke-width="3"/>
    <path d="M812.2 180.0 C 972.2 90.0, 645.9 518.7, 765.9 398.7" fill="none" stroke="#292524" stroke-opacity="0.17500000000000002" stroke-width="1"/>
    <path d="M747.5 501.6 C 907.5 411.6, 699.9 518.7, 819.9 398.7" fill="none" stroke="#292524" stroke-opacity="0.2" stroke-width="2"/>
    <path d="M626.7 180.0 C 786.7 90.0, 920.2 300.4, 1040.2 180.4" fill="none" stroke="#292524" stroke-opacity="0.1" stroke-width="3"/>
    <path d="M260.0 403.5 C 420.0 313.5, 641.7 546.9, 761.7 426.9" fill="none" stroke="#292524" stroke-opacity="0.125" stroke-width="1"/>
    <path d="M967.5 429.0 C 1127.5 339.0, 641.7 518.7, 761.7 398.7" fill="none" stroke="#292524" stroke-opacity="0.15000000000000002" stroke-width="2"/>
    <path d="M260.0 532.9 C 420.0 442.9, 159.5 466.0, 279.5 346.0" fill="none" stroke="#292524" stroke-opacity="0.17500000000000002" stroke-width="3"/>
    <path d="M751.8 401.6 C 911.8 311.6, 704.1 306.0, 824.1 186.0" fill="none" stroke="#292524" stroke-opacity="0.2" stroke-width="1"/>
    <path d="M807.8 401.6 C 967.8 311.6, 641.7 614.7, 761.7 494.7" fill="none" stroke="#292524" stroke-opacity="0.1" stroke-width="2"/>
    <path d="M1036.5 174.1 C 1196.5 84.1, 525.3 306.0, 645.3 186.0" fill="none" stroke="#292524" stroke-opacity="0.125" stroke-width="3"/>
    <path d="M747.5 431.0 C 907.5 341.0, 172.0 520.6, 292.0 400.6" fill="none" stroke="#292524" stroke-opacity="0.15000000000000002" stroke-width="1"/>
    <path d="M747.5 401.6 C 907.5 311.6, 853.7 545.1, 973.7 425.1" fill="none" stroke="#292524" stroke-opacity="0.17500000000000002" stroke-width="2"/>
    <path d="M120 610 C260 500 360 560 480 450 C610 330 760 430 900 300 C1000 210 1090 240 1140 200" fill="none" stroke="#292524" stroke-opacity="0.28" stroke-width="4"/>
    <circle cx="210" cy="590" r="9" fill="#292524" fill-opacity="0.25"/>
    <circle cx="515" cy="430" r="9" fill="#292524" fill-opacity="0.22"/>
    <circle cx="890" cy="315" r="9" fill="#292524" fill-opacity="0.2"/>
  </g>
</svg>