<svg xmlns="http://www.w3.org/2000/svg" viewBox="0 0 1200 760" role="img" aria-label="Watercolor destination illustration for Mount Paektu">
  <defs>
    <filter id="paper" x="-10%" y="-10%" width="120%" height="120%">
      <feTurbulence type="fractalNoise" baseFrequency="0.012" numOctaves="4" seed="189" result="noise"/>
      <feColorMatrix type="saturate" values="0.25"/>
      <feBlend in="SourceGraphic" in2="noise" mode="multiply"/>
    </filter>
    <filter id="bleed">
      <feGaussianBlur stdDeviation="24"/>
    </filter>
  </defs>
  <rect width="1200" height="760" fill="#f5f5f5"/>
  <g filter="url(#bleed)" opacity="0.9">
    <ellipse cx="381.6470588235294" cy="303.4117647058823" rx="266.3529411764706" ry="206" fill="#bed8eb"/>
    <ellipse cx="857.8039215686274" cy="266.9019607843137" rx="329.29411764705884" ry="222.27450980392157" fill="#e6b8c2"/>
    <ellipse cx="850.9019607843137" cy="503.52941176470586" rx="439.843137254902" ry="214.47058823529412" fill="#e9dcc5"/>
  </g>
  <g filter="url(#paper)">
    <path d="M648.2 313.3 C 808.2 223.3, 346.6 221.3, 466.6 101.3" fill="none" stroke="#292524" stroke-opacity="0.1" stroke-width="1"/>
    <path d="M855.3 460.4 C 1015.3 370.4, 280.1 569.5, 400.1 449.5" fill="none" stroke="#292524" stroke-opacity="0.125" stroke-width="2"/>
    <path d="M221.2 95.7 C 381.2 5.7, 205.3 467.9, 325.3 347.9" fill="none" stroke="#292524" stroke-opacity="0.15000000000000002" stroke-width="3"/>
    <path d="M553.3 262.4 C 713.3 172.4, -15.1 475.4, 104.9 355.4" fill="none" stroke="#292524" stroke-opacity="0.17500000000000002" stroke-width="1"/>
    <path d="M876.9 231.0 C 1036.9 141.0, 754.0 565.8, 874.0 445.8" fill="none" stroke="#292524" stroke-opacity="0.2" stroke-width="2"/>
    <path d="M74.5 195.7 C 234.5 105.7, 529.5 289.1, 649.5 169.1" fill="none" stroke="#292524" stroke-opacity="0.1" stroke-width="3"/>
    <path d="M441.2 91.8 C 601.2 1.8, 546.1 434.0, 666.1 314.0" fill="none" stroke="#292524" stroke-opacity="0.125" stroke-width="1"/>
    <path d="M372.2 454.5 C 532.2 364.5, 745.6 575.2, 865.6 455.2" fill="none" stroke="#292524" stroke-opacity="0.15000000000000002" stroke-width="2"/>
    <path d="M294.5 348.6 C 454.5 258.6, 134.6 225.1, 254.6 105.1" fill="none" stroke="#292524" stroke-opacity="0.17500000000000002" stroke-width="3"/>
    <path d="M65.9 356.5 C 225.9 266.5, 454.7 385.1, 574.7 265.1" fill="none" stroke="#292524" stroke-opacity="0.2" stroke-width="1"/>
    <path d="M863.9 450.6 C 1023.9 360.6, 766.4 354.9, 886.4 234.9" fill="none" stroke="#292524" stroke-opacity="0.1" stroke-width="2"/>
    <path d="M631.0 162.4 C 791.0 72.4, -6.7 321.1, 113.3 201.1" fill="none" stroke="#292524" stroke-opacity="0.125" stroke-width="3"/>
    <path d="M648.2 313.3 C 808.2 223.3, 346.6 221.3, 466.6 101.3" fill="none" stroke="#292524" stroke-opacity="0.15000000000000002" stroke-width="1"/>
    <path d="M855.3 460.4 C 1015.3 370.4, 280.1 569.5, 400.1 449.5" fill="none" stroke="#292524" stroke-opacity="0.17500000000000002" stroke-width="2"/>
    <path d="M120 610 C260 500 360 560 480 450 C610 330 760 430 900 300 C1000 210 1090 240 1140 200" fill="none" stroke="#292524" stroke-opacity="0.28" stroke-width="4"/>
    <circle cx="210" cy="590" r="9" fill="#292524" fill-opacity="0.25"/>
    <circle cx="515" cy="430" r="9" fill="#292524" fill-opacity="0.22"/>
    <circle cx="890" cy="315" r="9" fill="#292524" fill-opacity="0.2"/>
  </g>
</svg>