<svg xmlns="http://www.w3.org/2000/svg" viewBox="0 0 1200 760" role="img" aria-label="Watercolor destination illustration for Shanghai">
  <defs>
    <filter id="paper" x="-10%" y="-10%" width="120%" height="120%">
      <feTurbulence type="fractalNoise" baseFrequency="0.012" numOctaves="4" seed="71" result="noise"/>
      <feColorMatrix type="saturate" values="0.25"/>
      <feBlend in="SourceGraphic" in2="noise" mode="multiply"/>
    </filter>
    <filter id="bleed">
      <feGaussianBlur stdDeviation="24"/>
    </filter>
  </defs>
  <rect width="1200" height="760" fill="#f5f5f5"/>
  <g filter="url(#bleed)" opacity="0.9">
    <ellipse cx="442.0392156862745" cy="220.11764705882354" rx="399.37254901960785" ry="261.52941176470586" fill="#d6d1e8"/>
    <ellipse cx="668.156862745098" cy="436" rx="338.2352941176471" ry="312.3137254901961" fill="#c5e0d7"/>
    <ellipse cx="904.3921568627451" cy="610" rx="334.4313725490196" ry="239.88235294117646" fill="#efc6b1"/>
  </g>
  <g filter="url(#paper)">
    <path d="M950.2 544.7 C 1110.2 454.7, 396.5 562.0, 516.5 442.0" fill="none" stroke="#292524" stroke-opacity="0.1" stroke-width="1"/>
    <path d="M346.3 95.7 C 506.3 5.7, 961.8 253.3, 1081.8 133.3" fill="none" stroke="#292524" stroke-opacity="0.125" stroke-width="2"/>
    <path d="M1135.7 480.0 C 1295.7 390.0, 463.0 569.5, 583.0 449.5" fill="none" stroke="#292524" stroke-opacity="0.15000000000000002" stroke-width="3"/>
    <path d="M1062.4 285.9 C 1222.4 195.9, 737.3 607.2, 857.3 487.2" fill="none" stroke="#292524" stroke-opacity="0.17500000000000002" stroke-width="1"/>
    <path d="M74.5 552.5 C 234.5 462.5, 55.6 343.6, 175.6 223.6" fill="none" stroke="#292524" stroke-opacity="0.2" stroke-width="2"/>
    <path d="M920.0 317.3 C 1080.0 227.3, 754.0 688.1, 874.0 568.1" fill="none" stroke="#292524" stroke-opacity="0.1" stroke-width="3"/>
    <path d="M492.9 446.7 C 652.9 356.7, 837.1 656.1, 957.1 536.1" fill="none" stroke="#292524" stroke-opacity="0.125" stroke-width="1"/>
    <path d="M1079.6 125.1 C 1239.6 35.1, 255.1 225.1, 375.1 105.1" fill="none" stroke="#292524" stroke-opacity="0.15000000000000002" stroke-width="2"/>
    <path d="M562.0 454.5 C 722.0 364.5, 1015.8 594.0, 1135.8 474.0" fill="none" stroke="#292524" stroke-opacity="0.17500000000000002" stroke-width="3"/>
    <path d="M846.7 493.7 C 1006.7 403.7, 945.2 407.6, 1065.2 287.6" fill="none" stroke="#292524" stroke-opacity="0.2" stroke-width="1"/>
    <path d="M139.2 219.2 C 299.2 129.2, -6.7 663.6, 113.3 543.6" fill="none" stroke="#292524" stroke-opacity="0.1" stroke-width="2"/>
    <path d="M863.9 578.0 C 1023.9 488.0, 808.0 437.8, 928.0 317.8" fill="none" stroke="#292524" stroke-opacity="0.125" stroke-width="3"/>
    <path d="M950.2 544.7 C 1110.2 454.7, 396.5 562.0, 516.5 442.0" fill="none" stroke="#292524" stroke-opacity="0.15000000000000002" stroke-width="1"/>
    <path d="M346.3 95.7 C 506.3 5.7, 961.8 253.3, 1081.8 133.3" fill="none" stroke="#292524" stroke-opacity="0.17500000000000002" stroke-width="2"/>
    <path d="M120 610 C260 500 360 560 480 450 C610 330 760 430 900 300 C1000 210 1090 240 1140 200" fill="none" stroke="#292524" stroke-opacity="0.28" stroke-width="4"/>
    <circle cx="210" cy="590" r="9" fill="#292524" fill-opacity="0.25"/>
    <circle cx="515" cy="430" r="9" fill="#292524" fill-opacity="0.22"/>
    <circle cx="890" cy="315" r="9" fill="#292524" fill-opacity="0.2"/>
  </g>
</svg>