<svg xmlns="http://www.w3.org/2000/svg" viewBox="0 0 1200 760" role="img" aria-label="Watercolor destination illustration for Potala Palace">
  <defs>
    <filter id="paper" x="-10%" y="-10%" width="120%" height="120%">
      <feTurbulence type="fractalNoise" baseFrequency="0.012" numOctaves="4" seed="56" result="noise"/>
      <feColorMatrix type="saturate" values="0.25"/>
      <feBlend in="SourceGraphic" in2="noise" mode="multiply"/>
    </filter>
    <filter id="bleed">
      <feGaussianBlur stdDeviation="24"/>
    </filter>
  </defs>
  <rect width="1200" height="760" fill="#f5f5f5"/>
  <g filter="url(#bleed)" opacity="0.9">
    <ellipse cx="396.3137254901961" cy="209.52941176470588" rx="300.2352941176471" ry="264.3529411764706" fill="#d8cab6"/>
    <ellipse cx="817.0196078431372" cy="313.4901960784314" rx="334.5098039215686" ry="234.35294117647058" fill="#b8d7cc"/>
    <ellipse cx="899.2156862745098" cy="525.2941176470588" rx="424.156862745098" ry="255.88235294117646" fill="#f0c7a7"/>
  </g>
  <g filter="url(#paper)">
    <path d="M721.6 556.5 C 881.6 466.5, 375.7 290.9, 495.7 170.9" fill="none" stroke="#292524" stroke-opacity="0.1" stroke-width="1"/>
    <path d="M281.6 382.0 C 441.6 292.0, 371.5 522.5, 491.5 402.5" fill="none" stroke="#292524" stroke-opacity="0.125" stroke-width="2"/>
    <path d="M454.1 201.6 C 614.1 111.6, 438.0 633.5, 558.0 513.5" fill="none" stroke="#292524" stroke-opacity="0.15000000000000002" stroke-width="3"/>
    <path d="M1088.2 276.1 C 1248.2 186.1, 138.7 507.4, 258.7 387.4" fill="none" stroke="#292524" stroke-opacity="0.17500000000000002" stroke-width="1"/>
    <path d="M704.3 274.1 C 864.3 184.1, 650.0 315.4, 770.0 195.4" fill="none" stroke="#292524" stroke-opacity="0.2" stroke-width="2"/>
    <path d="M307.5 305.5 C 467.5 215.5, 895.3 390.7, 1015.3 270.7" fill="none" stroke="#292524" stroke-opacity="0.1" stroke-width="3"/>
    <path d="M471.4 164.3 C 631.4 74.3, 616.8 667.4, 736.8 547.4" fill="none" stroke="#292524" stroke-opacity="0.125" stroke-width="1"/>
    <path d="M467.1 405.5 C 627.1 315.5, 192.8 499.9, 312.8 379.9" fill="none" stroke="#292524" stroke-opacity="0.15000000000000002" stroke-width="2"/>
    <path d="M536.1 521.2 C 696.1 431.2, 359.1 326.7, 479.1 206.7" fill="none" stroke="#292524" stroke-opacity="0.17500000000000002" stroke-width="3"/>
    <path d="M225.5 389.8 C 385.5 299.8, 970.1 398.2, 1090.1 278.2" fill="none" stroke="#292524" stroke-opacity="0.2" stroke-width="1"/>
    <path d="M756.1 189.8 C 916.1 99.8, 600.2 396.4, 720.2 276.4" fill="none" stroke="#292524" stroke-opacity="0.1" stroke-width="2"/>
    <path d="M1010.6 268.2 C 1170.6 178.2, 217.7 426.5, 337.7 306.5" fill="none" stroke="#292524" stroke-opacity="0.125" stroke-width="3"/>
    <path d="M721.6 556.5 C 881.6 466.5, 375.7 290.9, 495.7 170.9" fill="none" stroke="#292524" stroke-opacity="0.15000000000000002" stroke-width="1"/>
    <path d="M281.6 382.0 C 441.6 292.0, 371.5 522.5, 491.5 402.5" fill="none" stroke="#292524" stroke-opacity="0.17500000000000002" stroke-width="2"/>
    <path d="M120 610 C260 500 360 560 480 450 C610 330 760 430 900 300 C1000 210 1090 240 1140 200" fill="none" stroke="#292524" stroke-opacity="0.28" stroke-width="4"/>
    <circle cx="210" cy="590" r="9" fill="#292524" fill-opacity="0.25"/>
    <circle cx="515" cy="430" r="9" fill="#292524" fill-opacity="0.22"/>
    <circle cx="890" cy="315" r="9" fill="#292524" fill-opacity="0.2"/>
  </g>
</svg>