<svg xmlns="http://www.w3.org/2000/svg" viewBox="0 0 1200 760" role="img" aria-label="Watercolor destination illustration for Pingyao">
  <defs>
    <filter id="paper" x="-10%" y="-10%" width="120%" height="120%">
      <feTurbulence type="fractalNoise" baseFrequency="0.012" numOctaves="4" seed="153" result="noise"/>
      <feColorMatrix type="saturate" values="0.25"/>
      <feBlend in="SourceGraphic" in2="noise" mode="multiply"/>
    </filter>
    <filter id="bleed">
      <feGaussianBlur stdDeviation="24"/>
    </filter>
  </defs>
  <rect width="1200" height="760" fill="#f5f5f5"/>
  <g filter="url(#bleed)" opacity="0.9">
    <ellipse cx="369.5686274509804" cy="278" rx="282.03921568627453" ry="156.58823529411765" fill="#d6d1e8"/>
    <ellipse cx="808.8627450980392" cy="351.45098039215685" rx="306.94117647058823" ry="239.84313725490196" fill="#c5e0d7"/>
    <ellipse cx="870.7450980392157" cy="515.2941176470588" rx="439.21568627450984" ry="166.47058823529412" fill="#efc6b1"/>
  </g>
  <g filter="url(#paper)">
    <path d="M587.8 107.5 C 747.8 17.5, 221.9 258.9, 341.9 138.9" fill="none" stroke="#292524" stroke-opacity="0.1" stroke-width="1"/>
    <path d="M700.0 366.3 C 860.0 276.3, 413.1 567.6, 533.1 447.6" fill="none" stroke="#292524" stroke-opacity="0.125" stroke-width="2"/>
    <path d="M329.0 287.8 C 489.0 197.8, 300.9 275.9, 420.9 155.9" fill="none" stroke="#292524" stroke-opacity="0.15000000000000002" stroke-width="3"/>
    <path d="M100.4 203.5 C 260.4 113.5, 68.1 449.1, 188.1 329.1" fill="none" stroke="#292524" stroke-opacity="0.17500000000000002" stroke-width="1"/>
    <path d="M669.8 293.7 C 829.8 203.7, 749.8 498.0, 869.8 378.0" fill="none" stroke="#292524" stroke-opacity="0.2" stroke-width="2"/>
    <path d="M497.3 240.8 C 657.3 150.8, 105.5 336.1, 225.5 216.1" fill="none" stroke="#292524" stroke-opacity="0.1" stroke-width="3"/>
    <path d="M311.8 131.0 C 471.8 41.0, 487.9 236.4, 607.9 116.4" fill="none" stroke="#292524" stroke-opacity="0.125" stroke-width="1"/>
    <path d="M510.2 452.5 C 670.2 362.5, 596.0 484.8, 716.0 364.8" fill="none" stroke="#292524" stroke-opacity="0.15000000000000002" stroke-width="2"/>
    <path d="M393.7 148.6 C 553.7 58.6, 238.5 409.5, 358.5 289.5" fill="none" stroke="#292524" stroke-opacity="0.17500000000000002" stroke-width="3"/>
    <path d="M152.2 329.0 C 312.2 239.0, 18.2 328.6, 138.2 208.6" fill="none" stroke="#292524" stroke-opacity="0.2" stroke-width="1"/>
    <path d="M859.6 380.0 C 1019.6 290.0, 566.9 415.2, 686.9 295.2" fill="none" stroke="#292524" stroke-opacity="0.1" stroke-width="2"/>
    <path d="M191.0 211.4 C 351.0 121.4, 400.6 364.4, 520.6 244.4" fill="none" stroke="#292524" stroke-opacity="0.125" stroke-width="3"/>
    <path d="M587.8 107.5 C 747.8 17.5, 221.9 258.9, 341.9 138.9" fill="none" stroke="#292524" stroke-opacity="0.15000000000000002" stroke-width="1"/>
    <path d="M700.0 366.3 C 860.0 276.3, 413.1 567.6, 533.1 447.6" fill="none" stroke="#292524" stroke-opacity="0.17500000000000002" stroke-width="2"/>
    <path d="M120 610 C260 500 360 560 480 450 C610 330 760 430 900 300 C1000 210 1090 240 1140 200" fill="none" stroke="#292524" stroke-opacity="0.28" stroke-width="4"/>
    <circle cx="210" cy="590" r="9" fill="#292524" fill-opacity="0.25"/>
    <circle cx="515" cy="430" r="9" fill="#292524" fill-opacity="0.22"/>
    <circle cx="890" cy="315" r="9" fill="#292524" fill-opacity="0.2"/>
  </g>
</svg>