<svg xmlns="http://www.w3.org/2000/svg" viewBox="0 0 1200 760" role="img" aria-label="Watercolor destination illustration for West Lake">
  <defs>
    <filter id="paper" x="-10%" y="-10%" width="120%" height="120%">
      <feTurbulence type="fractalNoise" baseFrequency="0.012" numOctaves="4" seed="129" result="noise"/>
      <feColorMatrix type="saturate" values="0.25"/>
      <feBlend in="SourceGraphic" in2="noise" mode="multiply"/>
    </filter>
    <filter id="bleed">
      <feGaussianBlur stdDeviation="24"/>
    </filter>
  </defs>
  <rect width="1200" height="760" fill="#f5f5f5"/>
  <g filter="url(#bleed)" opacity="0.9">
    <ellipse cx="461.88235294117646" cy="261.05882352941177" rx="313.4117647058823" ry="192.8235294117647" fill="#d8cab6"/>
    <ellipse cx="738.5098039215686" cy="348" rx="417.21568627450984" ry="233.2549019607843" fill="#b8d7cc"/>
    <ellipse cx="896.6274509803922" cy="572.3529411764706" rx="387.1372549019608" ry="186.7058823529412" fill="#f0c7a7"/>
  </g>
  <g filter="url(#paper)">
    <path d="M1049.4 258.4 C 1209.4 168.4, 837.1 441.5, 957.1 321.5" fill="none" stroke="#292524" stroke-opacity="0.1" stroke-width="1"/>
    <path d="M596.5 231.0 C 756.5 141.0, 363.2 411.4, 483.2 291.4" fill="none" stroke="#292524" stroke-opacity="0.125" stroke-width="2"/>
    <path d="M544.7 280.0 C 704.7 190.0, 425.6 356.8, 545.6 236.8" fill="none" stroke="#292524" stroke-opacity="0.15000000000000002" stroke-width="3"/>
    <path d="M432.5 493.7 C 592.5 403.7, 471.3 650.5, 591.3 530.5" fill="none" stroke="#292524" stroke-opacity="0.17500000000000002" stroke-width="1"/>
    <path d="M372.2 270.2 C 532.2 180.2, 404.8 452.8, 524.8 332.8" fill="none" stroke="#292524" stroke-opacity="0.2" stroke-width="2"/>
    <path d="M480.0 299.6 C 640.0 209.6, 284.2 430.2, 404.2 310.2" fill="none" stroke="#292524" stroke-opacity="0.1" stroke-width="3"/>
    <path d="M950.2 321.2 C 1110.2 231.2, 932.7 381.3, 1052.7 261.3" fill="none" stroke="#292524" stroke-opacity="0.125" stroke-width="1"/>
    <path d="M458.4 289.8 C 618.4 199.8, 496.2 354.9, 616.2 234.9" fill="none" stroke="#292524" stroke-opacity="0.15000000000000002" stroke-width="2"/>
    <path d="M523.1 232.9 C 683.1 142.9, 446.4 402.0, 566.4 282.0" fill="none" stroke="#292524" stroke-opacity="0.17500000000000002" stroke-width="3"/>
    <path d="M570.6 538.8 C 730.6 448.8, 338.3 607.2, 458.3 487.2" fill="none" stroke="#292524" stroke-opacity="0.2" stroke-width="1"/>
    <path d="M501.6 332.9 C 661.6 242.9, 280.1 392.6, 400.1 272.6" fill="none" stroke="#292524" stroke-opacity="0.1" stroke-width="2"/>
    <path d="M376.5 309.4 C 536.5 219.4, 384.0 420.8, 504.0 300.8" fill="none" stroke="#292524" stroke-opacity="0.125" stroke-width="3"/>
    <path d="M1049.4 258.4 C 1209.4 168.4, 837.1 441.5, 957.1 321.5" fill="none" stroke="#292524" stroke-opacity="0.15000000000000002" stroke-width="1"/>
    <path d="M596.5 231.0 C 756.5 141.0, 363.2 411.4, 483.2 291.4" fill="none" stroke="#292524" stroke-opacity="0.17500000000000002" stroke-width="2"/>
    <path d="M120 610 C260 500 360 560 480 450 C610 330 760 430 900 300 C1000 210 1090 240 1140 200" fill="none" stroke="#292524" stroke-opacity="0.28" stroke-width="4"/>
    <circle cx="210" cy="590" r="9" fill="#292524" fill-opacity="0.25"/>
    <circle cx="515" cy="430" r="9" fill="#292524" fill-opacity="0.22"/>
    <circle cx="890" cy="315" r="9" fill="#292524" fill-opacity="0.2"/>
  </g>
</svg>