<svg xmlns="http://www.w3.org/2000/svg" viewBox="0 0 1200 760" role="img" aria-label="Watercolor destination illustration for Shanhai Pass">
  <defs>
    <filter id="paper" x="-10%" y="-10%" width="120%" height="120%">
      <feTurbulence type="fractalNoise" baseFrequency="0.012" numOctaves="4" seed="38" result="noise"/>
      <feColorMatrix type="saturate" values="0.25"/>
      <feBlend in="SourceGraphic" in2="noise" mode="multiply"/>
    </filter>
    <filter id="bleed">
      <feGaussianBlur stdDeviation="24"/>
    </filter>
  </defs>
  <rect width="1200" height="760" fill="#f5f5f5"/>
  <g filter="url(#bleed)" opacity="0.9">
    <ellipse cx="471.37254901960785" cy="196.8235294117647" rx="309.6470588235294" ry="202.23529411764707" fill="#bed8eb"/>
    <ellipse cx="854.7450980392157" cy="366.98039215686276" rx="397.843137254902" ry="284.8627450980392" fill="#e6b8c2"/>
    <ellipse cx="877.6470588235294" cy="532.3529411764706" rx="439.21568627450984" ry="270" fill="#e9dcc5"/>
  </g>
  <g filter="url(#paper)">
    <path d="M1096.9 297.6 C 1256.9 207.6, 729.0 313.5, 849.0 193.5" fill="none" stroke="#292524" stroke-opacity="0.1" stroke-width="1"/>
    <path d="M203.9 454.5 C 363.9 364.5, 754.0 567.6, 874.0 447.6" fill="none" stroke="#292524" stroke-opacity="0.125" stroke-width="2"/>
    <path d="M518.8 323.1 C 678.8 233.1, 334.1 690.0, 454.1 570.0" fill="none" stroke="#292524" stroke-opacity="0.15000000000000002" stroke-width="3"/>
    <path d="M518.8 442.7 C 678.8 352.7, 188.6 671.2, 308.6 551.2" fill="none" stroke="#292524" stroke-opacity="0.17500000000000002" stroke-width="1"/>
    <path d="M863.9 454.5 C 1023.9 364.5, 749.8 281.5, 869.8 161.5" fill="none" stroke="#292524" stroke-opacity="0.2" stroke-width="2"/>
    <path d="M574.9 256.5 C 734.9 166.5, 1020.0 418.9, 1140.0 298.9" fill="none" stroke="#292524" stroke-opacity="0.1" stroke-width="3"/>
    <path d="M838.0 187.8 C 998.0 97.8, 978.4 418.9, 1098.4 298.9" fill="none" stroke="#292524" stroke-opacity="0.125" stroke-width="1"/>
    <path d="M863.9 452.5 C 1023.9 362.5, 118.0 569.5, 238.0 449.5" fill="none" stroke="#292524" stroke-opacity="0.15000000000000002" stroke-width="2"/>
    <path d="M428.2 580.0 C 588.2 490.0, 421.4 443.4, 541.4 323.4" fill="none" stroke="#292524" stroke-opacity="0.17500000000000002" stroke-width="3"/>
    <path d="M277.3 560.4 C 437.3 470.4, 421.4 558.2, 541.4 438.2" fill="none" stroke="#292524" stroke-opacity="0.2" stroke-width="1"/>
    <path d="M859.6 154.5 C 1019.6 64.5, 754.0 569.5, 874.0 449.5" fill="none" stroke="#292524" stroke-opacity="0.1" stroke-width="2"/>
    <path d="M1140.0 297.6 C 1300.0 207.6, 475.5 379.4, 595.5 259.4" fill="none" stroke="#292524" stroke-opacity="0.125" stroke-width="3"/>
    <path d="M1096.9 297.6 C 1256.9 207.6, 729.0 313.5, 849.0 193.5" fill="none" stroke="#292524" stroke-opacity="0.15000000000000002" stroke-width="1"/>
    <path d="M203.9 454.5 C 363.9 364.5, 754.0 567.6, 874.0 447.6" fill="none" stroke="#292524" stroke-opacity="0.17500000000000002" stroke-width="2"/>
    <path d="M120 610 C260 500 360 560 480 450 C610 330 760 430 900 300 C1000 210 1090 240 1140 200" fill="none" stroke="#292524" stroke-opacity="0.28" stroke-width="4"/>
    <circle cx="210" cy="590" r="9" fill="#292524" fill-opacity="0.25"/>
    <circle cx="515" cy="430" r="9" fill="#292524" fill-opacity="0.22"/>
    <circle cx="890" cy="315" r="9" fill="#292524" fill-opacity="0.2"/>
  </g>
</svg>