<svg xmlns="http://www.w3.org/2000/svg" viewBox="0 0 1200 760" role="img" aria-label="Watercolor destination illustration for Yalong Bay">
  <defs>
    <filter id="paper" x="-10%" y="-10%" width="120%" height="120%">
      <feTurbulence type="fractalNoise" baseFrequency="0.012" numOctaves="4" seed="246" result="noise"/>
      <feColorMatrix type="saturate" values="0.25"/>
      <feBlend in="SourceGraphic" in2="noise" mode="multiply"/>
    </filter>
    <filter id="bleed">
      <feGaussianBlur stdDeviation="24"/>
    </filter>
  </defs>
  <rect width="1200" height="760" fill="#f5f5f5"/>
  <g filter="url(#bleed)" opacity="0.9">
    <ellipse cx="326.4313725490196" cy="343.6470588235294" rx="347.2941176470588" ry="193.29411764705884" fill="#bed8eb"/>
    <ellipse cx="777.2549019607843" cy="404.07843137254906" rx="317.37254901960785" ry="203.60784313725492" fill="#e6b8c2"/>
    <ellipse cx="932" cy="517.6470588235294" rx="330.03921568627453" ry="243.1764705882353" fill="#e9dcc5"/>
  </g>
  <g filter="url(#paper)">
    <path d="M372.2 260.4 C 532.2 170.4, 280.1 266.5, 400.1 146.5" fill="none" stroke="#292524" stroke-opacity="0.1" stroke-width="1"/>
    <path d="M1101.2 305.5 C 1261.2 215.5, 138.7 240.1, 258.7 120.1" fill="none" stroke="#292524" stroke-opacity="0.125" stroke-width="2"/>
    <path d="M777.6 407.5 C 937.6 317.5, 596.0 582.7, 716.0 462.7" fill="none" stroke="#292524" stroke-opacity="0.15000000000000002" stroke-width="3"/>
    <path d="M436.9 231.0 C 596.9 141.0, 84.7 354.9, 204.7 234.9" fill="none" stroke="#292524" stroke-opacity="0.17500000000000002" stroke-width="1"/>
    <path d="M536.1 164.3 C 696.1 74.3, 26.5 673.1, 146.5 553.1" fill="none" stroke="#292524" stroke-opacity="0.2" stroke-width="2"/>
    <path d="M760.4 380.0 C 920.4 290.0, 783.1 531.9, 903.1 411.9" fill="none" stroke="#292524" stroke-opacity="0.1" stroke-width="3"/>
    <path d="M372.2 138.8 C 532.2 48.8, 280.1 383.2, 400.1 263.2" fill="none" stroke="#292524" stroke-opacity="0.125" stroke-width="1"/>
    <path d="M225.5 111.4 C 385.5 21.4, 982.6 426.5, 1102.6 306.5" fill="none" stroke="#292524" stroke-opacity="0.15000000000000002" stroke-width="2"/>
    <path d="M700.0 468.2 C 860.0 378.2, 670.8 524.4, 790.8 404.4" fill="none" stroke="#292524" stroke-opacity="0.17500000000000002" stroke-width="3"/>
    <path d="M169.4 231.0 C 329.4 141.0, 342.4 354.9, 462.4 234.9" fill="none" stroke="#292524" stroke-opacity="0.2" stroke-width="1"/>
    <path d="M109.0 562.4 C 269.0 472.4, 438.0 290.9, 558.0 170.9" fill="none" stroke="#292524" stroke-opacity="0.1" stroke-width="2"/>
    <path d="M894.1 415.3 C 1054.1 325.3, 654.2 498.0, 774.2 378.0" fill="none" stroke="#292524" stroke-opacity="0.125" stroke-width="3"/>
    <path d="M372.2 260.4 C 532.2 170.4, 280.1 266.5, 400.1 146.5" fill="none" stroke="#292524" stroke-opacity="0.15000000000000002" stroke-width="1"/>
    <path d="M1101.2 305.5 C 1261.2 215.5, 138.7 240.1, 258.7 120.1" fill="none" stroke="#292524" stroke-opacity="0.17500000000000002" stroke-width="2"/>
    <path d="M120 610 C260 500 360 560 480 450 C610 330 760 430 900 300 C1000 210 1090 240 1140 200" fill="none" stroke="#292524" stroke-opacity="0.28" stroke-width="4"/>
    <circle cx="210" cy="590" r="9" fill="#292524" fill-opacity="0.25"/>
    <circle cx="515" cy="430" r="9" fill="#292524" fill-opacity="0.22"/>
    <circle cx="890" cy="315" r="9" fill="#292524" fill-opacity="0.2"/>
  </g>
</svg>