<svg xmlns="http://www.w3.org/2000/svg" viewBox="0 0 1200 760" role="img" aria-label="Watercolor destination illustration for Old Town of Lijiang">
  <defs>
    <filter id="paper" x="-10%" y="-10%" width="120%" height="120%">
      <feTurbulence type="fractalNoise" baseFrequency="0.012" numOctaves="4" seed="179" result="noise"/>
      <feColorMatrix type="saturate" values="0.25"/>
      <feBlend in="SourceGraphic" in2="noise" mode="multiply"/>
    </filter>
    <filter id="bleed">
      <feGaussianBlur stdDeviation="24"/>
    </filter>
  </defs>
  <rect width="1200" height="760" fill="#f5f5f5"/>
  <g filter="url(#bleed)" opacity="0.9">
    <ellipse cx="454.98039215686276" cy="296.3529411764706" rx="291.45098039215685" ry="268.11764705882354" fill="#d8cab6"/>
    <ellipse cx="839.4509803921569" cy="324.70588235294116" rx="362.078431372549" ry="192.62745098039215" fill="#b8d7cc"/>
    <ellipse cx="1007.0588235294117" cy="508.8235294117647" rx="381.4901960784314" ry="216.8235294117647" fill="#f0c7a7"/>
  </g>
  <g filter="url(#paper)">
    <path d="M1014.9 572.2 C 1174.9 482.2, 529.5 238.2, 649.5 118.2" fill="none" stroke="#292524" stroke-opacity="0.1" stroke-width="1"/>
    <path d="M812.2 425.1 C 972.2 335.1, 55.6 394.5, 175.6 274.5" fill="none" stroke="#292524" stroke-opacity="0.125" stroke-width="2"/>
    <path d="M393.7 227.1 C 553.7 137.1, 957.6 477.3, 1077.6 357.3" fill="none" stroke="#292524" stroke-opacity="0.15000000000000002" stroke-width="3"/>
    <path d="M1122.7 348.6 C 1282.7 258.6, 22.4 635.4, 142.4 515.4" fill="none" stroke="#292524" stroke-opacity="0.17500000000000002" stroke-width="1"/>
    <path d="M799.2 125.1 C 959.2 35.1, 367.4 546.9, 487.4 426.9" fill="none" stroke="#292524" stroke-opacity="0.2" stroke-width="2"/>
    <path d="M363.5 550.6 C 523.5 460.6, 550.3 364.4, 670.3 244.4" fill="none" stroke="#292524" stroke-opacity="0.1" stroke-width="3"/>
    <path d="M631.0 109.4 C 791.0 19.4, 899.5 682.5, 1019.5 562.5" fill="none" stroke="#292524" stroke-opacity="0.125" stroke-width="1"/>
    <path d="M139.2 272.2 C 299.2 182.2, 704.1 541.3, 824.1 421.3" fill="none" stroke="#292524" stroke-opacity="0.15000000000000002" stroke-width="2"/>
    <path d="M1075.3 358.4 C 1235.3 268.4, 300.9 351.2, 420.9 231.2" fill="none" stroke="#292524" stroke-opacity="0.17500000000000002" stroke-width="3"/>
    <path d="M104.7 523.1 C 264.7 433.1, 1003.4 467.9, 1123.4 347.9" fill="none" stroke="#292524" stroke-opacity="0.2" stroke-width="1"/>
    <path d="M462.7 431.0 C 622.7 341.0, 691.6 253.3, 811.6 133.3" fill="none" stroke="#292524" stroke-opacity="0.1" stroke-width="2"/>
    <path d="M652.5 240.8 C 812.5 150.8, 271.8 661.8, 391.8 541.8" fill="none" stroke="#292524" stroke-opacity="0.125" stroke-width="3"/>
    <path d="M1014.9 572.2 C 1174.9 482.2, 529.5 238.2, 649.5 118.2" fill="none" stroke="#292524" stroke-opacity="0.15000000000000002" stroke-width="1"/>
    <path d="M812.2 425.1 C 972.2 335.1, 55.6 394.5, 175.6 274.5" fill="none" stroke="#292524" stroke-opacity="0.17500000000000002" stroke-width="2"/>
    <path d="M120 610 C260 500 360 560 480 450 C610 330 760 430 900 300 C1000 210 1090 240 1140 200" fill="none" stroke="#292524" stroke-opacity="0.28" stroke-width="4"/>
    <circle cx="210" cy="590" r="9" fill="#292524" fill-opacity="0.25"/>
    <circle cx="515" cy="430" r="9" fill="#292524" fill-opacity="0.22"/>
    <circle cx="890" cy="315" r="9" fill="#292524" fill-opacity="0.2"/>
  </g>
</svg>