<svg xmlns="http://www.w3.org/2000/svg" viewBox="0 0 1200 760" role="img" aria-label="Watercolor destination illustration for Yangshuo County">
  <defs>
    <filter id="paper" x="-10%" y="-10%" width="120%" height="120%">
      <feTurbulence type="fractalNoise" baseFrequency="0.012" numOctaves="4" seed="196" result="noise"/>
      <feColorMatrix type="saturate" values="0.25"/>
      <feBlend in="SourceGraphic" in2="noise" mode="multiply"/>
    </filter>
    <filter id="bleed">
      <feGaussianBlur stdDeviation="24"/>
    </filter>
  </defs>
  <rect width="1200" height="760" fill="#f5f5f5"/>
  <g filter="url(#bleed)" opacity="0.9">
    <ellipse cx="272.94117647058823" cy="308.3529411764706" rx="247.52941176470588" ry="155.1764705882353" fill="#d6d1e8"/>
    <ellipse cx="895.5294117647059" cy="365.2549019607843" rx="414.98039215686276" ry="217.88235294117646" fill="#c5e0d7"/>
    <ellipse cx="830.1960784313726" cy="541.1764705882352" rx="409.0980392156863" ry="231.88235294117646" fill="#efc6b1"/>
  </g>
  <g filter="url(#paper)">
    <path d="M104.7 101.6 C 264.7 11.6, 824.6 341.8, 944.6 221.8" fill="none" stroke="#292524" stroke-opacity="0.1" stroke-width="1"/>
    <path d="M885.5 532.9 C 1045.5 442.9, 246.8 477.3, 366.8 357.3" fill="none" stroke="#292524" stroke-opacity="0.125" stroke-width="2"/>
    <path d="M91.8 319.2 C 251.8 229.2, 105.5 537.5, 225.5 417.5" fill="none" stroke="#292524" stroke-opacity="0.15000000000000002" stroke-width="3"/>
    <path d="M87.5 487.8 C 247.5 397.8, 251.0 238.2, 371.0 118.2" fill="none" stroke="#292524" stroke-opacity="0.17500000000000002" stroke-width="1"/>
    <path d="M1036.5 215.3 C 1196.5 125.3, 550.3 578.9, 670.3 458.9" fill="none" stroke="#292524" stroke-opacity="0.2" stroke-width="2"/>
    <path d="M566.3 148.6 C 726.3 58.6, 683.3 232.6, 803.3 112.6" fill="none" stroke="#292524" stroke-opacity="0.1" stroke-width="3"/>
    <path d="M937.3 217.3 C 1097.3 127.3, 22.4 230.7, 142.4 110.7" fill="none" stroke="#292524" stroke-opacity="0.125" stroke-width="1"/>
    <path d="M337.6 358.4 C 497.6 268.4, 774.7 644.8, 894.7 524.8" fill="none" stroke="#292524" stroke-opacity="0.15000000000000002" stroke-width="2"/>
    <path d="M191.0 421.2 C 351.0 331.2, 9.9 439.6, 129.9 319.6" fill="none" stroke="#292524" stroke-opacity="0.17500000000000002" stroke-width="3"/>
    <path d="M342.0 109.4 C 502.0 19.4, 5.7 601.5, 125.7 481.5" fill="none" stroke="#292524" stroke-opacity="0.2" stroke-width="1"/>
    <path d="M652.5 464.3 C 812.5 374.3, 920.2 339.9, 1040.2 219.9" fill="none" stroke="#292524" stroke-opacity="0.1" stroke-width="2"/>
    <path d="M790.6 103.5 C 950.6 13.5, 467.1 275.9, 587.1 155.9" fill="none" stroke="#292524" stroke-opacity="0.125" stroke-width="3"/>
    <path d="M104.7 101.6 C 264.7 11.6, 824.6 341.8, 944.6 221.8" fill="none" stroke="#292524" stroke-opacity="0.15000000000000002" stroke-width="1"/>
    <path d="M885.5 532.9 C 1045.5 442.9, 246.8 477.3, 366.8 357.3" fill="none" stroke="#292524" stroke-opacity="0.17500000000000002" stroke-width="2"/>
    <path d="M120 610 C260 500 360 560 480 450 C610 330 760 430 900 300 C1000 210 1090 240 1140 200" fill="none" stroke="#292524" stroke-opacity="0.28" stroke-width="4"/>
    <circle cx="210" cy="590" r="9" fill="#292524" fill-opacity="0.25"/>
    <circle cx="515" cy="430" r="9" fill="#292524" fill-opacity="0.22"/>
    <circle cx="890" cy="315" r="9" fill="#292524" fill-opacity="0.2"/>
  </g>
</svg>