<svg xmlns="http://www.w3.org/2000/svg" viewBox="0 0 1200 760" role="img" aria-label="Watercolor China street food night market">
  <defs>
    <filter id="paper" x="-10%" y="-10%" width="120%" height="120%">
      <feTurbulence type="fractalNoise" baseFrequency="0.012" numOctaves="4" seed="60" result="noise"/>
      <feColorMatrix type="saturate" values="0.25"/>
      <feBlend in="SourceGraphic" in2="noise" mode="multiply"/>
    </filter>
    <filter id="bleed">
      <feGaussianBlur stdDeviation="24"/>
    </filter>
  </defs>
  <rect width="1200" height="760" fill="#f5f5f5"/>
  <g filter="url(#bleed)" opacity="0.9">
    <ellipse cx="352.3137254901961" cy="212.35294117647058" rx="391.21568627450984" ry="212.11764705882354" fill="#d6d1e8"/>
    <ellipse cx="782.3529411764706" cy="401.4901960784314" rx="283.843137254902" ry="187.13725490196077" fill="#c5e0d7"/>
    <ellipse cx="926.8235294117646" cy="505.29411764705884" rx="375.21568627450984" ry="255.41176470588235" fill="#efc6b1"/>
  </g>
  <g filter="url(#paper)">
    <path d="M501.6 338.8 C 661.6 248.8, 93.0 226.9, 213.0 106.9" fill="none" stroke="#292524" stroke-opacity="0.1" stroke-width="1"/>
    <path d="M298.8 315.3 C 458.8 225.3, 14.0 375.6, 134.0 255.6" fill="none" stroke="#292524" stroke-opacity="0.125" stroke-width="2"/>
    <path d="M1079.6 401.6 C 1239.6 311.6, 571.1 631.6, 691.1 511.6" fill="none" stroke="#292524" stroke-opacity="0.15000000000000002" stroke-width="3"/>
    <path d="M609.4 142.7 C 769.4 52.7, -2.6 411.4, 117.4 291.4" fill="none" stroke="#292524" stroke-opacity="0.17500000000000002" stroke-width="1"/>
    <path d="M557.6 105.5 C 717.6 15.5, 325.8 322.9, 445.8 202.9" fill="none" stroke="#292524" stroke-opacity="0.2" stroke-width="2"/>
    <path d="M747.5 368.2 C 907.5 278.2, 891.1 663.6, 1011.1 543.6" fill="none" stroke="#292524" stroke-opacity="0.1" stroke-width="3"/>
    <path d="M178.0 97.6 C 338.0 7.6, 404.8 458.5, 524.8 338.5" fill="none" stroke="#292524" stroke-opacity="0.125" stroke-width="1"/>
    <path d="M96.1 252.5 C 256.1 162.5, 209.4 435.9, 329.4 315.9" fill="none" stroke="#292524" stroke-opacity="0.15000000000000002" stroke-width="2"/>
    <path d="M674.1 519.2 C 834.1 429.2, 961.8 518.7, 1081.8 398.7" fill="none" stroke="#292524" stroke-opacity="0.17500000000000002" stroke-width="3"/>
    <path d="M78.8 289.8 C 238.8 199.8, 508.7 270.2, 628.7 150.2" fill="none" stroke="#292524" stroke-opacity="0.2" stroke-width="1"/>
    <path d="M419.6 197.6 C 579.6 107.6, 458.8 234.5, 578.8 114.5" fill="none" stroke="#292524" stroke-opacity="0.1" stroke-width="2"/>
    <path d="M1006.3 552.5 C 1166.3 462.5, 641.7 486.7, 761.7 366.7" fill="none" stroke="#292524" stroke-opacity="0.125" stroke-width="3"/>
    <path d="M501.6 338.8 C 661.6 248.8, 93.0 226.9, 213.0 106.9" fill="none" stroke="#292524" stroke-opacity="0.15000000000000002" stroke-width="1"/>
    <path d="M298.8 315.3 C 458.8 225.3, 14.0 375.6, 134.0 255.6" fill="none" stroke="#292524" stroke-opacity="0.17500000000000002" stroke-width="2"/>
    <path d="M120 610 C260 500 360 560 480 450 C610 330 760 430 900 300 C1000 210 1090 240 1140 200" fill="none" stroke="#292524" stroke-opacity="0.28" stroke-width="4"/>
    <circle cx="210" cy="590" r="9" fill="#292524" fill-opacity="0.25"/>
    <circle cx="515" cy="430" r="9" fill="#292524" fill-opacity="0.22"/>
    <circle cx="890" cy="315" r="9" fill="#292524" fill-opacity="0.2"/>
  </g>
</svg>