<svg xmlns="http://www.w3.org/2000/svg" viewBox="0 0 1200 760" role="img" aria-label="Watercolor Chengdu tea house ritual scene">
  <defs>
    <filter id="paper" x="-10%" y="-10%" width="120%" height="120%">
      <feTurbulence type="fractalNoise" baseFrequency="0.012" numOctaves="4" seed="87" result="noise"/>
      <feColorMatrix type="saturate" values="0.25"/>
      <feBlend in="SourceGraphic" in2="noise" mode="multiply"/>
    </filter>
    <filter id="bleed">
      <feGaussianBlur stdDeviation="24"/>
    </filter>
  </defs>
  <rect width="1200" height="760" fill="#f5f5f5"/>
  <g filter="url(#bleed)" opacity="0.9">
    <ellipse cx="328.156862745098" cy="231.41176470588235" rx="400" ry="252.11764705882354" fill="#d6d1e8"/>
    <ellipse cx="860.8627450980392" cy="404.94117647058823" rx="411.2549019607843" ry="261.80392156862746" fill="#c5e0d7"/>
    <ellipse cx="836.2352941176471" cy="504.70588235294116" rx="397.80392156862746" ry="253.05882352941177" fill="#efc6b1"/>
  </g>
  <g filter="url(#paper)">
    <path d="M380.8 505.5 C 540.8 415.5, 803.8 225.1, 923.8 105.1" fill="none" stroke="#292524" stroke-opacity="0.1" stroke-width="1"/>
    <path d="M415.3 466.3 C 575.3 376.3, 579.4 443.4, 699.4 323.4" fill="none" stroke="#292524" stroke-opacity="0.125" stroke-width="2"/>
    <path d="M1140.0 409.4 C 1300.0 319.4, 134.6 622.2, 254.6 502.2" fill="none" stroke="#292524" stroke-opacity="0.15000000000000002" stroke-width="3"/>
    <path d="M976.1 478.0 C 1136.1 388.0, -6.7 358.7, 113.3 238.7" fill="none" stroke="#292524" stroke-opacity="0.17500000000000002" stroke-width="1"/>
    <path d="M889.8 372.2 C 1049.8 282.2, 475.5 373.8, 595.5 253.8" fill="none" stroke="#292524" stroke-opacity="0.2" stroke-width="2"/>
    <path d="M764.7 162.4 C 924.7 72.4, 870.4 690.0, 990.4 570.0" fill="none" stroke="#292524" stroke-opacity="0.1" stroke-width="3"/>
    <path d="M915.7 95.7 C 1075.7 5.7, 288.4 618.5, 408.4 498.5" fill="none" stroke="#292524" stroke-opacity="0.125" stroke-width="1"/>
    <path d="M682.7 323.1 C 842.7 233.1, 321.6 580.8, 441.6 460.8" fill="none" stroke="#292524" stroke-opacity="0.15000000000000002" stroke-width="2"/>
    <path d="M221.2 509.4 C 381.2 419.4, 1020.0 526.2, 1140.0 406.2" fill="none" stroke="#292524" stroke-opacity="0.17500000000000002" stroke-width="3"/>
    <path d="M74.5 234.9 C 234.5 144.9, 862.0 592.1, 982.0 472.1" fill="none" stroke="#292524" stroke-opacity="0.2" stroke-width="1"/>
    <path d="M574.9 250.6 C 734.9 160.6, 778.9 490.5, 898.9 370.5" fill="none" stroke="#292524" stroke-opacity="0.1" stroke-width="2"/>
    <path d="M984.7 580.0 C 1144.7 490.0, 658.4 289.1, 778.4 169.1" fill="none" stroke="#292524" stroke-opacity="0.125" stroke-width="3"/>
    <path d="M380.8 505.5 C 540.8 415.5, 803.8 225.1, 923.8 105.1" fill="none" stroke="#292524" stroke-opacity="0.15000000000000002" stroke-width="1"/>
    <path d="M415.3 466.3 C 575.3 376.3, 579.4 443.4, 699.4 323.4" fill="none" stroke="#292524" stroke-opacity="0.17500000000000002" stroke-width="2"/>
    <path d="M120 610 C260 500 360 560 480 450 C610 330 760 430 900 300 C1000 210 1090 240 1140 200" fill="none" stroke="#292524" stroke-opacity="0.28" stroke-width="4"/>
    <circle cx="210" cy="590" r="9" fill="#292524" fill-opacity="0.25"/>
    <circle cx="515" cy="430" r="9" fill="#292524" fill-opacity="0.22"/>
    <circle cx="890" cy="315" r="9" fill="#292524" fill-opacity="0.2"/>
  </g>
</svg>