<svg xmlns="http://www.w3.org/2000/svg" viewBox="0 0 1200 760" role="img" aria-label="Watercolor language translation survival scene">
  <defs>
    <filter id="paper" x="-10%" y="-10%" width="120%" height="120%">
      <feTurbulence type="fractalNoise" baseFrequency="0.012" numOctaves="4" seed="143" result="noise"/>
      <feColorMatrix type="saturate" values="0.25"/>
      <feBlend in="SourceGraphic" in2="noise" mode="multiply"/>
    </filter>
    <filter id="bleed">
      <feGaussianBlur stdDeviation="24"/>
    </filter>
  </defs>
  <rect width="1200" height="760" fill="#f5f5f5"/>
  <g filter="url(#bleed)" opacity="0.9">
    <ellipse cx="417.88235294117646" cy="270.94117647058823" rx="305.2549019607843" ry="181.52941176470588" fill="#d6d1e8"/>
    <ellipse cx="893.4901960784314" cy="311.7647058823529" rx="420.19607843137254" ry="212.94117647058823" fill="#c5e0d7"/>
    <ellipse cx="934.5882352941177" cy="614.1176470588235" rx="441.0980392156863" ry="235.64705882352942" fill="#efc6b1"/>
  </g>
  <g filter="url(#paper)">
    <path d="M829.4 211.4 C 989.4 121.4, 853.7 575.2, 973.7 455.2" fill="none" stroke="#292524" stroke-opacity="0.1" stroke-width="1"/>
    <path d="M656.9 529.0 C 816.9 439.0, 209.4 573.3, 329.4 453.3" fill="none" stroke="#292524" stroke-opacity="0.125" stroke-width="2"/>
    <path d="M488.6 197.6 C 648.6 107.6, 608.5 552.6, 728.5 432.6" fill="none" stroke="#292524" stroke-opacity="0.15000000000000002" stroke-width="3"/>
    <path d="M329.0 501.6 C 489.0 411.6, 766.4 554.5, 886.4 434.5" fill="none" stroke="#292524" stroke-opacity="0.17500000000000002" stroke-width="1"/>
    <path d="M1027.8 197.6 C 1187.8 107.6, 762.3 479.2, 882.3 359.2" fill="none" stroke="#292524" stroke-opacity="0.2" stroke-width="2"/>
    <path d="M298.8 385.9 C 458.8 295.9, 716.5 405.8, 836.5 285.8" fill="none" stroke="#292524" stroke-opacity="0.1" stroke-width="3"/>
    <path d="M967.5 460.4 C 1127.5 370.4, 720.7 336.1, 840.7 216.1" fill="none" stroke="#292524" stroke-opacity="0.125" stroke-width="1"/>
    <path d="M298.8 458.4 C 458.8 368.4, 554.4 641.1, 674.4 521.1" fill="none" stroke="#292524" stroke-opacity="0.15000000000000002" stroke-width="2"/>
    <path d="M712.9 436.9 C 872.9 346.9, 392.3 322.9, 512.3 202.9" fill="none" stroke="#292524" stroke-opacity="0.17500000000000002" stroke-width="3"/>
    <path d="M876.9 438.8 C 1036.9 348.8, 238.5 614.7, 358.5 494.7" fill="none" stroke="#292524" stroke-opacity="0.2" stroke-width="1"/>
    <path d="M872.5 360.4 C 1032.5 270.4, 911.9 322.9, 1031.9 202.9" fill="none" stroke="#292524" stroke-opacity="0.1" stroke-width="2"/>
    <path d="M825.1 283.9 C 985.1 193.9, 209.4 503.6, 329.4 383.6" fill="none" stroke="#292524" stroke-opacity="0.125" stroke-width="3"/>
    <path d="M829.4 211.4 C 989.4 121.4, 853.7 575.2, 973.7 455.2" fill="none" stroke="#292524" stroke-opacity="0.15000000000000002" stroke-width="1"/>
    <path d="M656.9 529.0 C 816.9 439.0, 209.4 573.3, 329.4 453.3" fill="none" stroke="#292524" stroke-opacity="0.17500000000000002" stroke-width="2"/>
    <path d="M120 610 C260 500 360 560 480 450 C610 330 760 430 900 300 C1000 210 1090 240 1140 200" fill="none" stroke="#292524" stroke-opacity="0.28" stroke-width="4"/>
    <circle cx="210" cy="590" r="9" fill="#292524" fill-opacity="0.25"/>
    <circle cx="515" cy="430" r="9" fill="#292524" fill-opacity="0.22"/>
    <circle cx="890" cy="315" r="9" fill="#292524" fill-opacity="0.2"/>
  </g>
</svg>