<svg xmlns="http://www.w3.org/2000/svg" viewBox="0 0 1200 760" role="img" aria-label="Watercolor visa-free China entry planning scene">
  <defs>
    <filter id="paper" x="-10%" y="-10%" width="120%" height="120%">
      <feTurbulence type="fractalNoise" baseFrequency="0.012" numOctaves="4" seed="120" result="noise"/>
      <feColorMatrix type="saturate" values="0.25"/>
      <feBlend in="SourceGraphic" in2="noise" mode="multiply"/>
    </filter>
    <filter id="bleed">
      <feGaussianBlur stdDeviation="24"/>
    </filter>
  </defs>
  <rect width="1200" height="760" fill="#f5f5f5"/>
  <g filter="url(#bleed)" opacity="0.9">
    <ellipse cx="382.5098039215686" cy="254.70588235294116" rx="246.27450980392157" ry="226.70588235294116" fill="#d8cab6"/>
    <ellipse cx="710.9803921568628" cy="332.47058823529414" rx="370.27450980392155" ry="245.33333333333331" fill="#b8d7cc"/>
    <ellipse cx="933.7254901960785" cy="563.5294117647059" rx="462.4313725490196" ry="188.11764705882354" fill="#f0c7a7"/>
  </g>
  <g filter="url(#paper)">
    <path d="M652.5 399.6 C 812.5 309.6, 575.2 413.3, 695.2 293.3" fill="none" stroke="#292524" stroke-opacity="0.1" stroke-width="1"/>
    <path d="M557.6 178.0 C 717.6 88.0, 454.7 637.3, 574.7 517.3" fill="none" stroke="#292524" stroke-opacity="0.125" stroke-width="2"/>
    <path d="M83.1 244.7 C 243.1 154.7, 604.3 362.5, 724.3 242.5" fill="none" stroke="#292524" stroke-opacity="0.15000000000000002" stroke-width="3"/>
    <path d="M743.1 370.2 C 903.1 280.2, 408.9 477.3, 528.9 357.3" fill="none" stroke="#292524" stroke-opacity="0.17500000000000002" stroke-width="1"/>
    <path d="M255.7 313.3 C 415.7 223.3, 903.6 435.9, 1023.6 315.9" fill="none" stroke="#292524" stroke-opacity="0.2" stroke-width="2"/>
    <path d="M402.4 383.9 C 562.4 293.9, 296.7 228.8, 416.7 108.8" fill="none" stroke="#292524" stroke-opacity="0.1" stroke-width="3"/>
    <path d="M678.4 291.8 C 838.4 201.8, 550.3 516.8, 670.3 396.8" fill="none" stroke="#292524" stroke-opacity="0.125" stroke-width="1"/>
    <path d="M553.3 525.1 C 713.3 435.1, 458.8 304.1, 578.8 184.1" fill="none" stroke="#292524" stroke-opacity="0.15000000000000002" stroke-width="2"/>
    <path d="M708.6 238.8 C 868.6 148.8, 1.6 368.1, 121.6 248.1" fill="none" stroke="#292524" stroke-opacity="0.17500000000000002" stroke-width="3"/>
    <path d="M505.9 358.4 C 665.9 268.4, 637.6 488.6, 757.6 368.6" fill="none" stroke="#292524" stroke-opacity="0.2" stroke-width="1"/>
    <path d="M1019.2 315.3 C 1179.2 225.3, 167.8 434.0, 287.8 314.0" fill="none" stroke="#292524" stroke-opacity="0.1" stroke-width="2"/>
    <path d="M389.4 99.6 C 549.4 9.6, 309.2 501.8, 429.2 381.8" fill="none" stroke="#292524" stroke-opacity="0.125" stroke-width="3"/>
    <path d="M652.5 399.6 C 812.5 309.6, 575.2 413.3, 695.2 293.3" fill="none" stroke="#292524" stroke-opacity="0.15000000000000002" stroke-width="1"/>
    <path d="M557.6 178.0 C 717.6 88.0, 454.7 637.3, 574.7 517.3" fill="none" stroke="#292524" stroke-opacity="0.17500000000000002" stroke-width="2"/>
    <path d="M120 610 C260 500 360 560 480 450 C610 330 760 430 900 300 C1000 210 1090 240 1140 200" fill="none" stroke="#292524" stroke-opacity="0.28" stroke-width="4"/>
    <circle cx="210" cy="590" r="9" fill="#292524" fill-opacity="0.25"/>
    <circle cx="515" cy="430" r="9" fill="#292524" fill-opacity="0.22"/>
    <circle cx="890" cy="315" r="9" fill="#292524" fill-opacity="0.2"/>
  </g>
</svg>